<svg width="18" height="18" viewBox="0 0 18 18" fill="none" xmlns="http://www.w3.org/2000/svg">
<path fill-rule="evenodd" clip-rule="evenodd" d="M5.7285 2.54625C3.79575 2.54625 2.547 3.8715 2.547 5.916V12.0765C2.547 12.6503 2.6535 13.1625 2.83575 13.6058C2.84362 13.5964 3.0153 13.3871 3.23925 13.1142C3.67686 12.5809 4.31403 11.8045 4.3185 11.8005C4.8375 11.208 5.81175 10.3245 7.0905 10.8593C7.37072 10.9754 7.61979 11.1346 7.84908 11.2811C7.8714 11.2954 7.89354 11.3095 7.9155 11.3235C8.34525 11.6108 8.598 11.7458 8.8605 11.7233C8.96925 11.7083 9.07125 11.676 9.168 11.616C9.53297 11.391 10.4792 10.0503 10.7625 9.6488C10.8041 9.58992 10.8314 9.55124 10.8405 9.53925C11.658 8.47425 12.918 8.18925 13.968 8.81925C14.109 8.90325 15.1192 9.609 15.4537 9.8925V5.916C15.4537 3.8715 14.205 2.54625 12.2655 2.54625H5.7285ZM12.2655 1.5C14.7983 1.5 16.5 3.2715 16.5 5.916V12.0765C16.5 12.143 16.493 12.2054 16.486 12.2677C16.4811 12.3115 16.4762 12.3553 16.4738 12.4005C16.4721 12.4278 16.4714 12.4551 16.4706 12.4825C16.4695 12.5189 16.4685 12.5553 16.4655 12.5917C16.464 12.606 16.4612 12.6197 16.4584 12.6334C16.4556 12.6471 16.4528 12.6607 16.4513 12.675C16.4265 12.9105 16.3883 13.1355 16.335 13.3537C16.3224 13.4083 16.3079 13.4609 16.2932 13.5139L16.29 13.5255C16.23 13.737 16.1595 13.9387 16.0748 14.1315C16.0599 14.1639 16.0442 14.1955 16.0286 14.2271C16.0181 14.2481 16.0077 14.2692 15.9975 14.2905C15.906 14.4742 15.807 14.6505 15.6923 14.814C15.671 14.8443 15.6484 14.8726 15.6258 14.9011C15.6108 14.9198 15.5959 14.9386 15.5813 14.958C15.462 15.1125 15.3375 15.2602 15.1965 15.3945C15.1683 15.4213 15.1379 15.4458 15.1075 15.4703C15.0885 15.4856 15.0695 15.5009 15.051 15.5167C14.9063 15.6412 14.7585 15.7605 14.5958 15.8625C14.5602 15.8848 14.5225 15.9035 14.4849 15.9222C14.4606 15.9342 14.4363 15.9463 14.4127 15.9592C14.247 16.0507 14.0798 16.14 13.8975 16.209C13.8537 16.2257 13.807 16.2377 13.7602 16.2498C13.727 16.2584 13.6937 16.267 13.6613 16.2772C13.645 16.2823 13.6288 16.2873 13.6126 16.2924C13.4498 16.343 13.2876 16.3935 13.1123 16.4235C13.0107 16.4413 12.9029 16.4481 12.7951 16.455C12.7484 16.4579 12.7017 16.4609 12.6555 16.4647C12.6058 16.4685 12.5571 16.4745 12.5084 16.4805C12.429 16.4902 12.3496 16.5 12.2655 16.5H5.7285C5.4465 16.5 5.17725 16.4715 4.917 16.4287L4.88925 16.4242C3.8745 16.2495 3.03225 15.7597 2.442 15.021C2.4379 15.021 2.43629 15.0182 2.43415 15.0145C2.43276 15.0122 2.43115 15.0094 2.4285 15.0067C1.83525 14.2597 1.5 13.2555 1.5 12.0765V5.916C1.5 3.2715 3.20325 1.5 5.7285 1.5H12.2655ZM8.25045 6.38592C8.25045 7.40213 7.40016 8.2497 6.37908 8.2497C5.48155 8.2497 4.71629 7.59394 4.54478 6.74492C4.51644 6.61753 4.50045 6.48653 4.50045 6.35118C4.50045 5.32773 5.33185 4.4997 6.35946 4.4997C6.88272 4.4997 7.35655 4.71973 7.69594 5.07078C8.03679 5.40951 8.25045 5.87636 8.25045 6.38592Z" fill="#45BD63"/>
</svg>
