<svg width="21" height="21" viewBox="0 0 21 21" fill="none" xmlns="http://www.w3.org/2000/svg">
<path d="M0.615727 20.7459C0.60416 20.7459 0.592553 20.7456 0.580863 20.745C0.254953 20.7267 0 20.4571 0 20.1307V16.5291C0 13.3642 1.23363 10.3888 3.47361 8.15099C5.56787 6.05879 8.30726 4.84546 11.2437 4.69658V0.870107C11.2437 0.63197 11.3811 0.415203 11.5965 0.313648C11.8119 0.212052 12.0666 0.244003 12.2503 0.395433L20.7761 7.42526C20.9187 7.54286 21.0009 7.71836 21 7.90314C20.999 8.08799 20.915 8.2626 20.7712 8.37871L12.2453 15.2597C12.0609 15.4086 11.8074 15.4383 11.5936 15.336C11.3798 15.2339 11.2437 15.0179 11.2437 14.781V11.0467C6.09447 11.1616 1.80223 15.0703 1.22665 20.1992C1.19154 20.512 0.926789 20.7459 0.615727 20.7459ZM12.4742 2.17477V5.29623C12.4742 5.636 12.1987 5.91146 11.8589 5.91146C9.01987 5.91146 6.35074 7.01597 4.34327 9.02147C2.45958 10.9033 1.37004 13.3674 1.24302 16.0073C3.17043 12.3264 7.01544 9.84597 11.3912 9.81381L11.8544 9.8104C12.0187 9.81073 12.176 9.87353 12.2924 9.98899C12.4087 10.1045 12.4742 10.2617 12.4742 10.4256V13.4938L19.4115 7.89477L12.4742 2.17477Z" fill="#3A3A3A"/>
<path d="M12.4742 2.17477V5.29623C12.4742 5.636 12.1987 5.91146 11.8589 5.91146C9.01987 5.91146 6.35074 7.01597 4.34327 9.02147C2.45958 10.9033 1.37004 13.3674 1.24302 16.0073C3.17043 12.3264 7.01544 9.84597 11.3912 9.81381L11.8544 9.8104C12.0187 9.81073 12.176 9.87353 12.2924 9.98899C12.4087 10.1045 12.4742 10.2617 12.4742 10.4256V13.4938L19.4115 7.89477L12.4742 2.17477Z" fill="#3A3A3A"/>
</svg>
