<svg width="18" height="18" viewBox="0 0 18 18" fill="none" xmlns="http://www.w3.org/2000/svg">
<g clip-path="url(#clip0_3305_16662)">
<path d="M14.1985 3.33065V13.9523C14.1985 13.9735 14.1981 13.9947 14.1971 14.0159C14.1638 14.7434 13.5633 15.3234 12.8271 15.3234H5.1175C4.36006 15.3234 3.74609 14.7094 3.74609 13.9523V1.65458C3.74609 1.00352 4.19957 0.458492 4.80788 0.318184C4.90755 0.295227 5.01112 0.283203 5.1175 0.283203H11.2414C11.4496 0.283203 11.6529 0.330559 11.837 0.419645C12.2075 0.597957 12.3118 0.823273 12.9776 1.50404C13.7436 2.33573 13.9264 2.42098 14.0825 2.78105C14.1585 2.95279 14.1985 3.13944 14.1985 3.33065Z" fill="#FFC477"/>
<path d="M14.1967 3.33069V13.9523C14.1967 13.9735 14.1963 13.9947 14.1953 14.016C14.0956 14.039 13.992 14.051 13.8857 14.051H6.1761C5.41866 14.051 4.80469 13.437 4.80469 12.6799V0.382168C4.80469 0.360617 4.80504 0.339383 4.80609 0.318184C4.90576 0.295227 5.00933 0.283203 5.11571 0.283203H11.2397C11.4478 0.283203 11.6511 0.330559 11.8352 0.419645C11.9865 0.492453 12.1247 0.593527 12.2417 0.718684L12.9758 1.50407L13.8164 2.38347C13.9284 2.50047 14.0175 2.63512 14.0807 2.78113C14.1567 2.95283 14.1967 3.13947 14.1967 3.33069Z" fill="#FFDAAA"/>
<path d="M17.7167 8.08643V15.7967C17.7167 16.2254 17.5774 16.622 17.3413 16.9429C16.9889 17.4229 16.4202 17.7347 15.7787 17.7347H10.7427C9.67241 17.7347 8.80469 16.8669 8.80469 15.7967V8.08643C8.80469 7.28655 9.28963 6.59981 9.98133 6.30397C10.215 6.20395 10.4723 6.14844 10.7427 6.14844H15.7787C16.8493 6.14844 17.7167 7.01616 17.7167 8.08643Z" fill="#4CBA68"/>
<path d="M17.7162 8.08643V15.7967C17.7162 16.2254 17.5769 16.622 17.3408 16.9429C17.1071 17.0429 16.8498 17.0984 16.5794 17.0984H11.5435C10.4732 17.0984 9.60547 16.2307 9.60547 15.1605V7.4502C9.60547 7.02147 9.74472 6.62488 9.98083 6.30397C10.2145 6.20395 10.4718 6.14844 10.7422 6.14844H15.7782C16.8488 6.14844 17.7162 7.01616 17.7162 8.08643Z" fill="#7CCC92"/>
<path d="M14.0008 13.156V14.0616C14.0008 14.2217 13.8711 14.3514 13.7114 14.3514H12.8055C12.6454 14.3514 12.5156 14.2217 12.5156 14.0616V13.156C12.5156 12.9959 12.6454 12.8662 12.8055 12.8662H13.7114C13.8711 12.8662 14.0008 12.9959 14.0008 13.156Z" fill="#2C733F"/>
<path d="M16.3851 7.90518V8.87542C16.3851 9.22041 16.1055 9.50032 15.7602 9.50032H10.7616C10.4166 9.50032 10.1367 9.22037 10.1367 8.87542V7.90518C10.1367 7.56019 10.4167 7.28027 10.7616 7.28027H15.7602C16.1055 7.28027 16.3851 7.56022 16.3851 7.90518Z" fill="#1E81CE"/>
<path d="M16.3833 7.90518V8.87542C16.3833 9.22041 16.1037 9.50032 15.7584 9.50032H11.8202C11.4752 9.50032 11.1953 9.22037 11.1953 8.87542V7.90518C11.1953 7.56019 11.4753 7.28027 11.8202 7.28027H15.7584C16.1037 7.28027 16.3833 7.56022 16.3833 7.90518Z" fill="#3D9AE2"/>
<path d="M11.6223 13.156V14.0616C11.6223 14.2217 11.4926 14.3514 11.3325 14.3514H10.4265C10.2668 14.3514 10.1367 14.2217 10.1367 14.0616V13.156C10.1367 12.9959 10.2668 12.8662 10.4265 12.8662H11.3325C11.4926 12.8662 11.6223 12.9959 11.6223 13.156Z" fill="#2C733F"/>
<path d="M14.0047 10.7879V11.6934C14.0047 11.8535 13.875 11.9833 13.7153 11.9833H12.8094C12.6493 11.9833 12.5195 11.8535 12.5195 11.6934V10.7879C12.5195 10.6278 12.6493 10.498 12.8094 10.498H13.7153C13.875 10.498 14.0047 10.6278 14.0047 10.7879Z" fill="#2C733F"/>
<path d="M16.411 10.7879V11.6934C16.411 11.8535 16.2813 11.9833 16.1212 11.9833H15.2156C15.0555 11.9833 14.9258 11.8535 14.9258 11.6934V10.7879C14.9258 10.6278 15.0555 10.498 15.2156 10.498H16.1212C16.2813 10.498 16.411 10.6278 16.411 10.7879Z" fill="#EE8700"/>
<path d="M11.6223 10.7879V11.6934C11.6223 11.8535 11.4926 11.9833 11.3325 11.9833H10.4265C10.2668 11.9833 10.1367 11.8535 10.1367 11.6934V10.7879C10.1367 10.6278 10.2668 10.498 10.4265 10.498H11.3325C11.4926 10.498 11.6223 10.6278 11.6223 10.7879Z" fill="#2C733F"/>
<path d="M14.0047 15.4076V16.3135C14.0047 16.4736 13.875 16.6034 13.7153 16.6034H12.8094C12.6493 16.6034 12.5195 16.4736 12.5195 16.3135V15.4076C12.5195 15.2479 12.6493 15.1182 12.8094 15.1182H13.7153C13.875 15.1182 14.0047 15.2479 14.0047 15.4076Z" fill="#2C733F"/>
<path d="M11.6223 15.4076V16.3135C11.6223 16.4736 11.4926 16.6034 11.3325 16.6034H10.4265C10.2668 16.6034 10.1367 16.4736 10.1367 16.3135V15.4076C10.1367 15.2479 10.2668 15.1182 10.4265 15.1182H11.3325C11.4926 15.1182 11.6223 15.2479 11.6223 15.4076Z" fill="#2C733F"/>
<path d="M16.411 13.2967V16.1092C16.411 16.3824 16.1897 16.6036 15.9169 16.6036H15.4199C15.147 16.6036 14.9258 16.3824 14.9258 16.1092V13.2967C14.9258 13.0589 15.1188 12.8662 15.3563 12.8662H15.9805C16.2184 12.8662 16.411 13.0589 16.411 13.2967Z" fill="#EE8700"/>
<path d="M14.0047 13.156V13.4254C14.0047 13.5855 13.875 13.7152 13.7153 13.7152H12.8094C12.6493 13.7152 12.5195 13.5855 12.5195 13.4254V13.156C12.5195 12.9959 12.6493 12.8662 12.8094 12.8662H13.7153C13.875 12.8662 14.0047 12.9959 14.0047 13.156Z" fill="#317F46"/>
<path d="M11.6223 13.156V13.4254C11.6223 13.5855 11.4926 13.7152 11.3325 13.7152H10.4265C10.2668 13.7152 10.1367 13.5855 10.1367 13.4254V13.156C10.1367 12.9959 10.2668 12.8662 10.4265 12.8662H11.3325C11.4926 12.8662 11.6223 12.9959 11.6223 13.156Z" fill="#317F46"/>
<path d="M14.0047 10.7879V11.0572C14.0047 11.2173 13.875 11.347 13.7153 11.347H12.8094C12.6493 11.347 12.5195 11.2173 12.5195 11.0572V10.7879C12.5195 10.6278 12.6493 10.498 12.8094 10.498H13.7153C13.875 10.498 14.0047 10.6278 14.0047 10.7879Z" fill="#317F46"/>
<path d="M16.411 10.7879V11.0572C16.411 11.2173 16.2813 11.347 16.1212 11.347H15.2156C15.0555 11.347 14.9258 11.2173 14.9258 11.0572V10.7879C14.9258 10.6278 15.0555 10.498 15.2156 10.498H16.1212C16.2813 10.498 16.411 10.6278 16.411 10.7879Z" fill="#FF9811"/>
<path d="M11.6223 10.7879V11.0572C11.6223 11.2173 11.4926 11.347 11.3325 11.347H10.4265C10.2668 11.347 10.1367 11.2173 10.1367 11.0572V10.7879C10.1367 10.6278 10.2668 10.498 10.4265 10.498H11.3325C11.4926 10.498 11.6223 10.6278 11.6223 10.7879Z" fill="#317F46"/>
<path d="M14.0047 15.4076V15.6773C14.0047 15.8374 13.875 15.9672 13.7153 15.9672H12.8094C12.6493 15.9672 12.5195 15.8374 12.5195 15.6773V15.4076C12.5195 15.2479 12.6493 15.1182 12.8094 15.1182H13.7153C13.875 15.1182 14.0047 15.2479 14.0047 15.4076Z" fill="#317F46"/>
<path d="M11.6223 15.4076V15.6773C11.6223 15.8374 11.4926 15.9672 11.3325 15.9672H10.4265C10.2668 15.9672 10.1367 15.8374 10.1367 15.6773V15.4076C10.1367 15.2479 10.2668 15.1182 10.4265 15.1182H11.3325C11.4926 15.1182 11.6223 15.2479 11.6223 15.4076Z" fill="#317F46"/>
<path d="M16.411 13.2967V15.4729C16.411 15.7462 16.1897 15.9674 15.9169 15.9674H15.4199C15.147 15.9674 14.9258 15.7461 14.9258 15.4729V13.2967C14.9258 13.0589 15.1188 12.8662 15.3563 12.8662H15.9805C16.2184 12.8662 16.411 13.0589 16.411 13.2967Z" fill="#FF9811"/>
<path d="M14.0816 2.78032H12.3631C12.072 2.78032 11.8359 2.54428 11.8359 2.25312V0.418945C11.9873 0.491719 12.1255 0.592758 12.2424 0.717773L12.9768 1.50323L13.8172 2.38277C13.9291 2.4997 14.0182 2.63439 14.0816 2.78032Z" fill="#FFB655"/>
<path d="M7.89871 16.902C7.89871 17.0869 7.82305 17.2544 7.70148 17.3764C7.57953 17.498 7.41201 17.5736 7.22716 17.5736H3.11296C2.74361 17.5736 2.44141 17.2714 2.44141 16.902C2.44141 16.7172 2.51706 16.5496 2.63863 16.4277C2.76059 16.3061 2.92811 16.2305 3.11296 16.2305H7.22716C7.59651 16.2305 7.89871 16.5327 7.89871 16.902Z" fill="#AA6100"/>
<path d="M7.89871 15.5583C7.89871 15.7431 7.82305 15.9107 7.70148 16.0326C7.57953 16.1542 7.41201 16.2298 7.22716 16.2298H3.11296C2.74361 16.2298 2.44141 15.9276 2.44141 15.5583C2.44141 15.3734 2.51706 15.2059 2.63863 15.0839C2.76059 14.9623 2.92811 14.8867 3.11296 14.8867H7.22716C7.59651 14.8867 7.89871 15.1889 7.89871 15.5583Z" fill="#CC7400"/>
<path d="M7.89871 14.2145C7.89871 14.3994 7.82305 14.5669 7.70148 14.6889C7.57953 14.8105 7.41201 14.8861 7.22716 14.8861H3.11296C2.74361 14.8861 2.44141 14.5839 2.44141 14.2145C2.44141 14.0297 2.51706 13.8621 2.63863 13.7402C2.76059 13.6186 2.92811 13.543 3.11296 13.543H7.22716C7.59651 13.543 7.89871 13.8452 7.89871 14.2145Z" fill="#EE8700"/>
<path d="M7.89871 12.8728C7.89871 13.0576 7.82305 13.2252 7.70148 13.3471C7.57953 13.4687 7.41201 13.5443 7.22716 13.5443H3.11296C2.74361 13.5443 2.44141 13.2421 2.44141 12.8728C2.44141 12.7413 2.47994 12.6183 2.54603 12.5143C2.57254 12.4723 2.60365 12.4334 2.63863 12.3984C2.76059 12.2768 2.92811 12.2012 3.11296 12.2012H7.22716C7.59651 12.2012 7.89871 12.5034 7.89871 12.8728Z" fill="#FF9811"/>
<path d="M7.22702 12.2005H3.11296C2.74361 12.2005 2.44141 11.8983 2.44141 11.529C2.44141 11.1596 2.74361 10.8574 3.11296 10.8574H7.22702C7.59637 10.8574 7.89857 11.1596 7.89857 11.529C7.89857 11.8983 7.59637 12.2005 7.22702 12.2005Z" fill="#FFA733"/>
<path d="M5.53803 15.3699C5.49524 14.3675 4.78445 13.5513 3.85313 13.3329C3.66364 13.2885 3.46504 13.2688 3.26081 13.2774V13.2773H2.40458C0.463291 13.3615 -0.44156 15.7794 1.04502 17.0987C1.45459 17.4628 2.00099 17.6746 2.59172 17.6493H3.26074V17.6486C3.32181 17.651 3.38337 17.6516 3.44553 17.649C3.58513 17.643 3.72087 17.6239 3.852 17.5935C4.8014 17.3719 5.50368 16.536 5.53834 15.5424V15.54C5.54052 15.4837 5.54052 15.4271 5.53803 15.3699Z" fill="#CC7400"/>
<path d="M5.53667 15.54V15.5424C5.50204 16.536 4.79972 17.3719 3.85033 17.5935C2.91967 17.3747 2.20888 16.559 2.16613 15.5569C2.16578 15.552 2.16543 15.5474 2.16543 15.5424V15.54C2.1283 14.4796 2.85291 13.5663 3.85141 13.333C4.78277 13.5514 5.49356 14.3676 5.53631 15.37C5.53881 15.4272 5.53881 15.4838 5.53667 15.54Z" fill="#EE8700"/>
<path d="M15.7778 5.88361H14.4803V3.33025C14.4803 2.89301 14.3064 2.48548 14.0218 2.18753L13.1835 1.31024C12.472 0.57716 12.3822 0.370055 11.9584 0.164355C11.7615 0.0660938 11.5021 0 11.2406 0H5.11662C4.20435 0 3.46245 0.742254 3.46245 1.65417V10.5746H3.11359C2.5873 10.5746 2.15928 11.0027 2.15928 11.529C2.15928 11.7909 2.26531 12.028 2.43638 12.2005C2.26531 12.373 2.15928 12.6102 2.15928 12.8721C2.15928 12.9703 2.17306 13.0287 2.17802 13.0608C0.107102 13.2715 -0.717875 15.8347 0.797746 17.2259C1.25548 17.6462 1.86305 17.8844 2.52188 17.8575C2.7396 17.8575 7.22209 17.8558 7.22775 17.8558C7.75369 17.8558 8.18207 17.4278 8.18207 16.9015C8.18207 16.6396 8.07604 16.4024 7.90497 16.2299C8.06577 16.0677 8.16899 15.8489 8.18066 15.6057H8.53873V15.7969C8.53873 17.0118 9.52697 18 10.7418 18H15.7778C16.9926 18 17.9809 17.0118 17.9809 15.7969V8.08668C17.9809 6.87185 16.9926 5.88361 15.7778 5.88361ZM12.1189 0.999914C13.2294 2.17375 13.4797 2.43847 13.5267 2.48832C13.5267 2.48832 13.527 2.48832 13.5274 2.48903C13.5277 2.48903 13.5277 2.48903 13.5277 2.48903C13.5281 2.48973 13.5288 2.49043 13.5291 2.49079L13.5295 2.49114C13.5302 2.49219 13.5309 2.49289 13.5316 2.49325C13.5319 2.4936 13.5323 2.49395 13.5326 2.49465C13.533 2.495 13.5333 2.495 13.5333 2.49536C13.5337 2.49571 13.534 2.49571 13.5344 2.49641C13.5351 2.49676 13.5355 2.49746 13.5358 2.49782H12.1188L12.1189 0.999914ZM3.11359 11.1402H7.22779C7.442 11.1402 7.61658 11.3148 7.61658 11.529C7.61658 11.7435 7.44196 11.9178 7.22779 11.9178H3.11359C2.89939 11.9178 2.7248 11.7435 2.7248 11.529C2.72477 11.3148 2.89939 11.1402 3.11359 11.1402ZM3.11359 12.4833H7.22779C7.442 12.4833 7.61658 12.6579 7.61658 12.8721C7.61658 13.0866 7.44196 13.2609 7.22779 13.2609H4.386C4.27041 13.2079 4.1506 13.1647 4.02794 13.1315C3.84484 13.0816 3.65539 13.0534 3.46241 13.0484C3.40694 13.047 3.35143 13.0474 3.29595 13.0498H2.76825C2.74034 12.9965 2.72477 12.936 2.72477 12.872C2.72477 12.6579 2.89939 12.4833 3.11359 12.4833ZM7.61658 14.2152C7.61658 14.4298 7.44196 14.604 7.22779 14.604H5.64537C5.53793 14.3181 5.37604 14.0547 5.16538 13.8264H7.22779C7.44196 13.8264 7.61658 14.001 7.61658 14.2152ZM1.73793 13.7077C1.5658 13.871 1.41273 14.065 1.29257 14.2789H0.963156C1.17842 14.012 1.44599 13.8222 1.73793 13.7077ZM0.66236 14.809H1.07414C1.06497 14.8486 1.01828 15.0009 0.997082 15.2328H0.561988C0.578969 15.0872 0.612543 14.9451 0.66236 14.809ZM0.707957 16.2105C0.645379 16.0684 0.60052 15.9182 0.575067 15.763H1.007C1.08441 16.202 1.08863 16.1263 1.10807 16.2105H0.707957ZM1.06072 16.7406C1.23425 16.7403 1.335 16.7413 1.35866 16.7399C1.46434 16.9067 1.59157 17.0612 1.73898 17.2001C1.48273 17.0994 1.25478 16.9457 1.06072 16.7406ZM3.47338 17.3277C2.43884 17.3723 1.56296 16.571 1.51915 15.534C1.4481 13.883 3.42002 12.9322 4.6617 14.0721C5.88573 15.1957 5.14063 17.2592 3.47338 17.3277ZM7.22779 17.2903H4.94555C5.19825 17.0764 5.40575 16.8117 5.55312 16.5127H7.22779C7.442 16.5127 7.61658 16.6873 7.61658 16.9015C7.61658 17.116 7.44196 17.2903 7.22779 17.2903ZM7.61342 15.6057C7.59007 15.798 7.42607 15.9472 7.22779 15.9472H5.74824C5.7995 15.7019 5.81398 15.4375 5.78252 15.1696H7.22779C7.46601 15.1695 7.64379 15.3827 7.61342 15.6057ZM8.53873 15.0402H8.02833C7.99265 14.9847 7.95127 14.9334 7.90497 14.8868C8.27432 14.5142 8.27467 13.9162 7.90497 13.5437C8.07604 13.3712 8.18207 13.134 8.18207 12.8721C8.18207 12.6102 8.07604 12.373 7.90497 12.2006C8.49946 11.6011 8.07463 10.5747 7.22775 10.5747H4.02794V1.65417C4.02794 1.05402 4.5164 0.565523 5.11659 0.565523H11.5533V2.78061C11.5533 2.93685 11.6799 3.06337 11.8361 3.06337H13.8812C13.9402 3.29242 13.9038 3.21676 13.9148 5.88357H10.7418C9.52697 5.88357 8.53873 6.87182 8.53873 8.08664V15.0402ZM17.4507 15.7969C17.4507 16.7194 16.7004 17.4698 15.7778 17.4698H10.7418C9.81968 17.4698 9.06892 16.7195 9.06892 15.7969V8.08668C9.06892 7.16418 9.81965 6.41377 10.7418 6.41377H15.7779C16.7004 6.41377 17.4508 7.16414 17.4508 8.08668V15.7969H17.4507Z" fill="black"/>
<path d="M11.7228 9.23567H10.7611C10.5632 9.23567 10.4013 9.07374 10.4013 8.87585V7.90561C10.4013 7.70771 10.5632 7.54578 10.7611 7.54578H15.7596C15.9583 7.54578 16.1194 7.70732 16.1194 7.90561V8.87585C16.1194 9.07413 15.9583 9.23567 15.7596 9.23567H12.8659C12.7195 9.23567 12.6008 9.35436 12.6008 9.50075C12.6008 9.64714 12.7195 9.76583 12.8659 9.76583H15.7596C16.2506 9.76583 16.6496 9.36642 16.6496 8.87585V7.90561C16.6496 7.415 16.2505 7.01562 15.7596 7.01562H10.7611C10.2696 7.01562 9.87109 7.41409 9.87109 7.90561V8.87585C9.87109 9.36737 10.2696 9.76583 10.7611 9.76583H11.7228C11.8692 9.76583 11.9879 9.64714 11.9879 9.50075C11.9879 9.35436 11.8692 9.23567 11.7228 9.23567Z" fill="black"/>
<path d="M10.426 14.6169H11.3319C11.638 14.6169 11.8868 14.3681 11.8868 14.062V13.1565C11.8868 12.8504 11.638 12.6016 11.3319 12.6016H10.426C10.1202 12.6016 9.87109 12.8504 9.87109 13.1565V14.062C9.87106 14.3681 10.1202 14.6169 10.426 14.6169ZM10.4013 13.1565C10.4013 13.1427 10.4126 13.1317 10.426 13.1317H11.3319C11.3453 13.1317 11.3567 13.1427 11.3567 13.1565V14.062C11.3567 14.0758 11.3453 14.0868 11.3319 14.0868H10.426C10.4126 14.0868 10.4013 14.0758 10.4013 14.062V13.1565Z" fill="black"/>
<path d="M16.1245 10.2324H15.219C14.9129 10.2324 14.6641 10.4813 14.6641 10.7873V11.6929C14.6641 11.999 14.9129 12.2478 15.219 12.2478H16.1245C16.4306 12.2478 16.6794 11.999 16.6794 11.6929V10.7873C16.6794 10.4813 16.4306 10.2324 16.1245 10.2324ZM16.1493 11.6929C16.1493 11.7067 16.1383 11.7176 16.1245 11.7176H15.219C15.2055 11.7176 15.1942 11.7067 15.1942 11.6929C15.2052 10.7969 15.1712 10.7626 15.219 10.7626H16.1245C16.1383 10.7626 16.1493 10.7735 16.1493 10.7873V11.6929Z" fill="black"/>
<path d="M10.426 12.2478H11.3319C11.638 12.2478 11.8868 11.999 11.8868 11.6929V10.7873C11.8868 10.4812 11.638 10.2324 11.3319 10.2324H10.426C10.1202 10.2324 9.87109 10.4813 9.87109 10.7873V11.6929C9.87106 11.999 10.1202 12.2478 10.426 12.2478ZM10.4013 10.7873C10.4013 10.7735 10.4126 10.7626 10.426 10.7626H11.3319C11.3453 10.7626 11.3567 10.7735 11.3567 10.7873V11.6929C11.3567 11.7067 11.3453 11.7176 11.3319 11.7176H10.426C10.4126 11.7176 10.4013 11.7067 10.4013 11.6929V10.7873Z" fill="black"/>
<path d="M11.7482 15.0405C11.6463 14.926 11.4979 14.8535 11.3329 14.8535H10.4269C10.2619 14.8535 10.1134 14.926 10.012 15.0405C9.81938 15.2564 9.88477 15.4918 9.87204 15.606V16.314C9.87204 16.6201 10.1212 16.8689 10.4269 16.8689H11.3329C11.639 16.8689 11.8878 16.62 11.8878 16.314V15.606C11.875 15.4943 11.9397 15.2564 11.7482 15.0405ZM11.3329 16.3387C10.4379 16.3278 10.4022 16.3617 10.4022 16.314C10.4022 15.3551 10.3916 15.3837 10.4269 15.3837H11.3329C11.3763 15.3837 11.3495 15.4441 11.3576 15.606C11.3576 15.606 11.3806 16.3387 11.3329 16.3387Z" fill="black"/>
<path d="M15.98 12.6016H15.3558C14.9723 12.6016 14.6602 12.9137 14.6602 13.2972V16.1096C14.6602 16.5284 15.0009 16.8692 15.4194 16.8692H15.9164C16.3352 16.8692 16.6756 16.5284 16.6756 16.1096V13.2972C16.6756 12.9137 16.3638 12.6016 15.98 12.6016ZM16.1454 16.1096C16.1454 16.2361 16.0429 16.339 15.9164 16.339H15.4194C15.2932 16.339 15.1903 16.2361 15.1903 16.1096V13.2972C15.1903 13.206 15.2646 13.1318 15.3558 13.1318H15.98C16.0712 13.1318 16.1454 13.206 16.1454 13.2972L16.1454 16.1096Z" fill="black"/>
<path d="M6.84164 7.69984C6.51841 7.58109 6.28491 7.4953 6.28491 7.19584C6.28491 6.92293 6.46617 6.78455 6.82361 6.78455C7.20305 6.78455 7.30521 6.95158 7.43887 6.95158C7.58435 6.95158 7.66482 6.79717 7.66482 6.69044C7.66482 6.46959 7.30458 6.36007 6.98255 6.33118V6.13205C6.98255 5.99354 6.86987 5.88086 6.73136 5.88086C6.59284 5.88086 6.48016 5.99354 6.48016 6.13205V6.36292C6.03983 6.46748 5.79789 6.77161 5.79789 7.22225C5.79789 7.83924 6.25211 8.00992 6.61717 8.14714C6.97457 8.28143 7.25691 8.38754 7.25691 8.79559C7.25691 9.13264 7.06977 9.30353 6.70059 9.30353C6.16031 9.30353 6.15525 8.93875 5.94916 8.93875C5.82155 8.93875 5.71875 9.08163 5.71875 9.19989C5.71875 9.40879 6.02985 9.68336 6.48016 9.75462V9.94703C6.48016 10.0855 6.59284 10.1982 6.73136 10.1982C6.86987 10.1982 6.98255 10.0855 6.98255 9.94703V9.74945C7.46693 9.65829 7.74396 9.30262 7.74396 8.76919C7.74393 8.03137 7.24365 7.84757 6.84164 7.69984Z" fill="black"/>
<path d="M13.7117 14.8535H12.8058C12.6407 14.8535 12.4923 14.926 12.3905 15.0405C12.1986 15.2568 12.2636 15.4918 12.2509 15.606V16.314C12.2509 16.6201 12.4997 16.8689 12.8058 16.8689H13.7117C14.0174 16.8689 14.2662 16.62 14.2662 16.314V15.4081C14.2662 15.2515 14.2009 15.1098 14.0962 15.009C13.9966 14.9129 13.8609 14.8535 13.7117 14.8535ZM13.7117 16.3387C12.8167 16.3278 12.781 16.3617 12.781 16.314V15.4081C12.781 15.3946 12.7924 15.3837 12.8058 15.3837H13.7117C13.7251 15.3837 13.7361 15.3946 13.7361 15.4081C13.7255 16.3052 13.7587 16.3387 13.7117 16.3387Z" fill="black"/>
<path d="M13.7108 10.2324H12.8049C12.4988 10.2324 12.25 10.4813 12.25 10.7873V11.6929C12.25 11.999 12.4988 12.2478 12.8049 12.2478H13.7108C13.7822 12.2478 13.8501 12.2344 13.9126 12.2096C14.119 12.1287 14.2654 11.9276 14.2654 11.6928V10.7873C14.2654 10.4802 14.0151 10.2324 13.7108 10.2324ZM13.7352 11.6929C13.7352 11.7067 13.7242 11.7176 13.7108 11.7176H12.8049C12.7915 11.7176 12.7802 11.7067 12.7802 11.6929V10.7873C12.7802 10.7396 12.813 10.7732 13.7108 10.7626C13.7242 10.7626 13.7352 10.7735 13.7352 10.7873V11.6929Z" fill="black"/>
<path d="M13.9126 12.6397C13.8501 12.615 13.7822 12.6016 13.7108 12.6016H12.8049C12.4988 12.6016 12.25 12.8504 12.25 13.1565V14.062C12.25 14.3681 12.4988 14.6169 12.8049 14.6169H13.7108C14.0166 14.6169 14.2654 14.3681 14.2654 14.062V13.1565C14.2654 12.9218 14.119 12.7207 13.9126 12.6397ZM13.7352 14.062C13.7352 14.0758 13.7242 14.0868 13.7108 14.0868H12.8049C12.7915 14.0868 12.7802 14.0758 12.7802 14.062V13.1565C12.7802 13.1427 12.7915 13.1317 12.8049 13.1317H13.7108C13.7242 13.1317 13.7352 13.1427 13.7352 13.1565V14.062Z" fill="black"/>
<path d="M11.5151 4.1532H12.181C12.3273 4.1532 12.4461 4.0348 12.4461 3.88813C12.4461 3.7418 12.3273 3.62305 12.181 3.62305H11.5151C11.3688 3.62305 11.25 3.7418 11.25 3.88813C11.25 4.0348 11.3687 4.1532 11.5151 4.1532Z" fill="black"/>
<path d="M5.75727 4.1532H10.4582C10.6045 4.1532 10.7233 4.0348 10.7233 3.88813C10.7233 3.7418 10.6045 3.62305 10.4582 3.62305H5.75727C5.61095 3.62305 5.49219 3.7418 5.49219 3.88813C5.49215 4.0348 5.61095 4.1532 5.75727 4.1532Z" fill="black"/>
<path d="M6.59989 5.46863C6.74621 5.46863 6.86497 5.34987 6.86497 5.20355C6.86497 5.05723 6.74621 4.93848 6.59989 4.93848H5.75727C5.61095 4.93848 5.49219 5.05723 5.49219 5.20355C5.49219 5.34987 5.61095 5.46863 5.75727 5.46863H6.59989Z" fill="black"/>
<path d="M12.4489 5.20355C12.4489 5.05723 12.3302 4.93848 12.1839 4.93848H7.65961C7.51329 4.93848 7.39453 5.05723 7.39453 5.20355C7.39453 5.34987 7.51329 5.46863 7.65961 5.46863H12.1838C12.3302 5.46863 12.4489 5.34987 12.4489 5.20355Z" fill="black"/>
<path d="M3.29436 14.9114C3.29436 14.8447 3.3189 14.8256 3.34186 14.8129C3.41309 14.7735 3.57649 14.7619 3.72615 14.8389C3.76591 14.8593 3.81098 14.8825 3.86962 14.8825C4.13108 14.8825 4.33787 14.3966 3.71332 14.2892V14.2725C3.71332 14.1244 3.5928 14.0039 3.44469 14.0039C3.29658 14.0039 3.17606 14.1244 3.17606 14.2725V14.3235C2.91436 14.4184 2.76632 14.6343 2.76632 14.9272C2.76632 15.3793 3.09478 15.5028 3.33469 15.5929C3.56345 15.6788 3.64255 15.7164 3.64255 15.872C3.64255 15.9693 3.61636 16.0594 3.4262 16.0594C3.1491 16.0594 3.18229 15.8403 2.9749 15.8403C2.82833 15.8403 2.71875 15.9853 2.71875 16.1149C2.71875 16.2986 2.90972 16.4729 3.17606 16.5435V16.5636C3.17606 16.7117 3.29658 16.8323 3.44469 16.8323C3.5928 16.8323 3.71332 16.7118 3.71332 16.5636V16.5365C4.00153 16.4439 4.1706 16.1957 4.1706 15.8562C4.17067 15.0507 3.29436 15.1716 3.29436 14.9114Z" fill="black"/>
</g>
<defs>
<clipPath id="clip0_3305_16662">
<rect width="18" height="18" fill="white"/>
</clipPath>
</defs>
</svg>
