<svg width="71" height="20" viewBox="0 0 71 20" fill="none" xmlns="http://www.w3.org/2000/svg">
<g clip-path="url(#clip0_3305_16640)">
<mask id="path-1-inside-1_3305_16640" fill="white">
<path d="M9 0.0351562C4.03734 0.0351562 0 4.05684 0 9C0 13.9432 4.03734 17.9648 9 17.9648C10.526 17.9648 12.0196 17.5783 13.3441 16.8437C14.2549 17.5693 15.3803 17.9648 16.5539 17.9648H17.4375C17.6821 17.9648 17.8945 17.7968 17.9507 17.5586C18.007 17.3206 17.8921 17.0752 17.6733 16.9658C16.7693 16.5138 16.1281 15.6754 15.9243 14.6946C17.2646 13.0699 18 11.0575 18 9C18 4.05684 13.9627 0.0351562 9 0.0351562ZM14.8406 14.6124C14.9551 15.4513 15.309 16.2241 15.8438 16.8486C15.0693 16.7131 14.3476 16.3569 13.7619 15.8126C13.5886 15.6515 13.3292 15.6257 13.1274 15.7493C11.8884 16.5087 10.4612 16.9102 9 16.9102C4.61893 16.9102 1.05469 13.3617 1.05469 9C1.05469 4.63829 4.61893 1.08984 9 1.08984C13.3811 1.08984 16.9453 4.63829 16.9453 9C16.9453 10.885 16.2422 12.7299 14.9656 14.1946C14.8656 14.3093 14.8201 14.4616 14.8406 14.6124Z"/>
</mask>
<path d="M9 0.0351562C4.03734 0.0351562 0 4.05684 0 9C0 13.9432 4.03734 17.9648 9 17.9648C10.526 17.9648 12.0196 17.5783 13.3441 16.8437C14.2549 17.5693 15.3803 17.9648 16.5539 17.9648H17.4375C17.6821 17.9648 17.8945 17.7968 17.9507 17.5586C18.007 17.3206 17.8921 17.0752 17.6733 16.9658C16.7693 16.5138 16.1281 15.6754 15.9243 14.6946C17.2646 13.0699 18 11.0575 18 9C18 4.05684 13.9627 0.0351562 9 0.0351562ZM14.8406 14.6124C14.9551 15.4513 15.309 16.2241 15.8438 16.8486C15.0693 16.7131 14.3476 16.3569 13.7619 15.8126C13.5886 15.6515 13.3292 15.6257 13.1274 15.7493C11.8884 16.5087 10.4612 16.9102 9 16.9102C4.61893 16.9102 1.05469 13.3617 1.05469 9C1.05469 4.63829 4.61893 1.08984 9 1.08984C13.3811 1.08984 16.9453 4.63829 16.9453 9C16.9453 10.885 16.2422 12.7299 14.9656 14.1946C14.8656 14.3093 14.8201 14.4616 14.8406 14.6124Z" fill="#3A3A3A"/>
<path d="M13.3441 16.8437L19.5755 9.02259L14.3439 4.85433L8.49417 8.09853L13.3441 16.8437ZM17.9507 17.5586L8.21933 15.2563L8.21778 15.2629L17.9507 17.5586ZM17.6733 16.9658L22.1477 8.02262L22.1449 8.02123L17.6733 16.9658ZM15.9243 14.6946L8.21035 8.33102L5.15738 12.0318L6.1334 16.729L15.9243 14.6946ZM14.8406 14.6124L4.93143 15.9571L4.93251 15.965L14.8406 14.6124ZM15.8438 16.8486L14.12 26.6989L41.5527 31.4997L23.4399 10.3448L15.8438 16.8486ZM13.7619 15.8126L6.95381 23.1372L6.95494 23.1383L13.7619 15.8126ZM13.1274 15.7493L7.9033 7.22238L7.90154 7.22346L13.1274 15.7493ZM14.9656 14.1946L22.5031 20.7662L22.5042 20.7649L14.9656 14.1946ZM9 -9.96484C-1.44866 -9.96484 -10 -1.50279 -10 9H10C10 9.61647 9.52333 10.0352 9 10.0352V-9.96484ZM-10 9C-10 19.5028 -1.44866 27.9648 9 27.9648V7.96484C9.52333 7.96484 10 8.38353 10 9H-10ZM9 27.9648C12.217 27.9648 15.3804 27.1493 18.1941 25.5889L8.49417 8.09853C8.65878 8.00724 8.83496 7.96484 9 7.96484V27.9648ZM7.11273 24.6648C9.7923 26.7997 13.1141 27.9648 16.5539 27.9648V7.96484C17.6465 7.96484 18.7175 8.33895 19.5755 9.02259L7.11273 24.6648ZM16.5539 27.9648H17.4375V7.96484H16.5539V27.9648ZM17.4375 27.9648C22.3193 27.9648 26.5623 24.6083 27.6836 19.8543L8.21778 15.2629C9.22677 10.9852 13.0449 7.96484 17.4375 7.96484V27.9648ZM27.6821 19.8609C28.8082 15.101 26.5077 10.204 22.1477 8.02263L13.1989 25.9089C9.27645 23.9465 7.20583 19.5402 8.21933 15.2563L27.6821 19.8609ZM22.1449 8.02123C23.987 8.94214 25.2985 10.6553 25.7151 12.6602L6.1334 16.729C6.95759 20.6956 9.55152 24.0855 13.2017 25.9103L22.1449 8.02123ZM23.6382 21.0582C26.4122 17.6956 28 13.4482 28 9H8C8 8.66668 8.11704 8.44414 8.21035 8.33102L23.6382 21.0582ZM28 9C28 -1.50279 19.4487 -9.96484 9 -9.96484V10.0352C8.47667 10.0352 8 9.61647 8 9H28ZM4.93251 15.965C5.3103 18.7323 6.47987 21.2877 8.24769 23.3524L23.4399 10.3448C24.1382 11.1604 24.6 12.1703 24.7487 13.2597L4.93251 15.965ZM17.5676 6.99833C18.6949 7.19561 19.739 7.71584 20.5688 8.48695L6.95494 23.1383C8.95623 24.9979 11.4436 26.2306 14.12 26.6989L17.5676 6.99833ZM20.57 8.488C17.1073 5.26954 11.9282 4.75647 7.9033 7.22238L18.3515 24.2762C14.7301 26.495 10.0698 26.0335 6.95382 23.1372L20.57 8.488ZM7.90154 7.22346C8.24436 7.01333 8.62735 6.91016 9 6.91016V26.9102C12.295 26.9102 15.5325 26.0042 18.3533 24.2752L7.90154 7.22346ZM9 6.91016C10.0999 6.91016 11.0547 7.79708 11.0547 9H-8.94531C-8.94531 18.9263 -0.862046 26.9102 9 26.9102V6.91016ZM11.0547 9C11.0547 10.2029 10.0999 11.0898 9 11.0898V-8.91016C-0.862046 -8.91016 -8.94531 -0.926338 -8.94531 9H11.0547ZM9 11.0898C7.9001 11.0898 6.94531 10.2029 6.94531 9H26.9453C26.9453 -0.926338 18.862 -8.91016 9 -8.91016V11.0898ZM6.94531 9C6.94531 8.38916 7.17008 7.91902 7.42695 7.62429L22.5042 20.7649C25.3143 17.5407 26.9453 13.3808 26.9453 9H6.94531ZM7.42808 7.623C5.42763 9.91747 4.52437 12.9574 4.93143 15.9571L24.7498 13.2677C25.1159 15.9658 24.3036 18.7011 22.5031 20.7662L7.42808 7.623Z" fill="#3A3A3A" mask="url(#path-1-inside-1_3305_16640)"/>
</g>
<path d="M29.296 10.208C29.296 9.664 29.4213 9.176 29.672 8.744C29.928 8.312 30.272 7.976 30.704 7.736C31.1413 7.49067 31.6187 7.368 32.136 7.368C32.728 7.368 33.2533 7.51467 33.712 7.808C34.176 8.096 34.512 8.50667 34.72 9.04H33.624C33.48 8.74667 33.28 8.528 33.024 8.384C32.768 8.24 32.472 8.168 32.136 8.168C31.768 8.168 31.44 8.25067 31.152 8.416C30.864 8.58133 30.6373 8.81867 30.472 9.128C30.312 9.43733 30.232 9.79733 30.232 10.208C30.232 10.6187 30.312 10.9787 30.472 11.288C30.6373 11.5973 30.864 11.8373 31.152 12.008C31.44 12.1733 31.768 12.256 32.136 12.256C32.472 12.256 32.768 12.184 33.024 12.04C33.28 11.896 33.48 11.6773 33.624 11.384H34.72C34.512 11.9173 34.176 12.328 33.712 12.616C33.2533 12.904 32.728 13.048 32.136 13.048C31.6133 13.048 31.136 12.928 30.704 12.688C30.272 12.4427 29.928 12.104 29.672 11.672C29.4213 11.24 29.296 10.752 29.296 10.208ZM37.6995 13.072C37.2835 13.072 36.9075 12.9787 36.5715 12.792C36.2355 12.6 35.9715 12.3333 35.7795 11.992C35.5875 11.6453 35.4915 11.2453 35.4915 10.792C35.4915 10.344 35.5902 9.94667 35.7875 9.6C35.9848 9.25333 36.2542 8.98667 36.5955 8.8C36.9368 8.61333 37.3182 8.52 37.7395 8.52C38.1608 8.52 38.5422 8.61333 38.8835 8.8C39.2248 8.98667 39.4942 9.25333 39.6915 9.6C39.8888 9.94667 39.9875 10.344 39.9875 10.792C39.9875 11.24 39.8862 11.6373 39.6835 11.984C39.4808 12.3307 39.2035 12.6 38.8515 12.792C38.5048 12.9787 38.1208 13.072 37.6995 13.072ZM37.6995 12.28C37.9342 12.28 38.1528 12.224 38.3555 12.112C38.5635 12 38.7315 11.832 38.8595 11.608C38.9875 11.384 39.0515 11.112 39.0515 10.792C39.0515 10.472 38.9902 10.2027 38.8675 9.984C38.7448 9.76 38.5822 9.592 38.3795 9.48C38.1768 9.368 37.9582 9.312 37.7235 9.312C37.4888 9.312 37.2702 9.368 37.0675 9.48C36.8702 9.592 36.7128 9.76 36.5955 9.984C36.4782 10.2027 36.4195 10.472 36.4195 10.792C36.4195 11.2667 36.5395 11.6347 36.7795 11.896C37.0248 12.152 37.3315 12.28 37.6995 12.28ZM46.2251 8.52C46.5717 8.52 46.8811 8.592 47.1531 8.736C47.4304 8.88 47.6464 9.09333 47.8011 9.376C47.9611 9.65867 48.0411 10 48.0411 10.4V13H47.1371V10.536C47.1371 10.1413 47.0384 9.84 46.8411 9.632C46.6437 9.41867 46.3744 9.312 46.0331 9.312C45.6917 9.312 45.4197 9.41867 45.2171 9.632C45.0197 9.84 44.9211 10.1413 44.9211 10.536V13H44.0171V10.536C44.0171 10.1413 43.9184 9.84 43.7211 9.632C43.5237 9.41867 43.2544 9.312 42.9131 9.312C42.5717 9.312 42.2997 9.41867 42.0971 9.632C41.8997 9.84 41.8011 10.1413 41.8011 10.536V13H40.8891V8.592H41.8011V9.096C41.9504 8.91467 42.1397 8.77333 42.3691 8.672C42.5984 8.57067 42.8437 8.52 43.1051 8.52C43.4571 8.52 43.7717 8.59467 44.0491 8.744C44.3264 8.89333 44.5397 9.10933 44.6891 9.392C44.8224 9.12533 45.0304 8.91467 45.3131 8.76C45.5957 8.6 45.8997 8.52 46.2251 8.52ZM54.5376 8.52C54.8842 8.52 55.1936 8.592 55.4656 8.736C55.7429 8.88 55.9589 9.09333 56.1136 9.376C56.2736 9.65867 56.3536 10 56.3536 10.4V13H55.4496V10.536C55.4496 10.1413 55.3509 9.84 55.1536 9.632C54.9562 9.41867 54.6869 9.312 54.3456 9.312C54.0042 9.312 53.7322 9.41867 53.5296 9.632C53.3322 9.84 53.2336 10.1413 53.2336 10.536V13H52.3296V10.536C52.3296 10.1413 52.2309 9.84 52.0336 9.632C51.8362 9.41867 51.5669 9.312 51.2256 9.312C50.8842 9.312 50.6122 9.41867 50.4096 9.632C50.2122 9.84 50.1136 10.1413 50.1136 10.536V13H49.2016V8.592H50.1136V9.096C50.2629 8.91467 50.4522 8.77333 50.6816 8.672C50.9109 8.57067 51.1562 8.52 51.4176 8.52C51.7696 8.52 52.0842 8.59467 52.3616 8.744C52.6389 8.89333 52.8522 9.10933 53.0016 9.392C53.1349 9.12533 53.3429 8.91467 53.6256 8.76C53.9082 8.6 54.2122 8.52 54.5376 8.52ZM61.5541 10.688C61.5541 10.8533 61.5434 11.0027 61.5221 11.136H58.1541C58.1807 11.488 58.3114 11.7707 58.5461 11.984C58.7807 12.1973 59.0687 12.304 59.4101 12.304C59.9007 12.304 60.2474 12.0987 60.4501 11.688H61.4341C61.3007 12.0933 61.0581 12.4267 60.7061 12.688C60.3594 12.944 59.9274 13.072 59.4101 13.072C58.9887 13.072 58.6101 12.9787 58.2741 12.792C57.9434 12.6 57.6821 12.3333 57.4901 11.992C57.3034 11.6453 57.2101 11.2453 57.2101 10.792C57.2101 10.3387 57.3007 9.94133 57.4821 9.6C57.6687 9.25333 57.9274 8.98667 58.2581 8.8C58.5941 8.61333 58.9781 8.52 59.4101 8.52C59.8261 8.52 60.1967 8.61067 60.5221 8.792C60.8474 8.97333 61.1007 9.22933 61.2821 9.56C61.4634 9.88533 61.5541 10.2613 61.5541 10.688ZM60.6021 10.4C60.5967 10.064 60.4767 9.79467 60.2421 9.592C60.0074 9.38933 59.7167 9.288 59.3701 9.288C59.0554 9.288 58.7861 9.38933 58.5621 9.592C58.3381 9.78933 58.2047 10.0587 58.1621 10.4H60.6021ZM64.6756 8.52C65.0222 8.52 65.3316 8.592 65.6036 8.736C65.8809 8.88 66.0969 9.09333 66.2516 9.376C66.4062 9.65867 66.4836 10 66.4836 10.4V13H65.5796V10.536C65.5796 10.1413 65.4809 9.84 65.2836 9.632C65.0862 9.41867 64.8169 9.312 64.4756 9.312C64.1342 9.312 63.8622 9.41867 63.6596 9.632C63.4622 9.84 63.3636 10.1413 63.3636 10.536V13H62.4516V8.592H63.3636V9.096C63.5129 8.91467 63.7022 8.77333 63.9316 8.672C64.1662 8.57067 64.4142 8.52 64.6756 8.52ZM68.7109 9.336V11.776C68.7109 11.9413 68.7482 12.0613 68.8229 12.136C68.9029 12.2053 69.0362 12.24 69.2229 12.24H69.7829V13H69.0629C68.6522 13 68.3375 12.904 68.1189 12.712C67.9002 12.52 67.7909 12.208 67.7909 11.776V9.336H67.2709V8.592H67.7909V7.496H68.7109V8.592H69.7829V9.336H68.7109Z" fill="#3A3A3A"/>
<defs>
<clipPath id="clip0_3305_16640">
<rect width="18" height="18" fill="white"/>
</clipPath>
</defs>
</svg>
