<svg width="18" height="18" viewBox="0 0 18 18" fill="none" xmlns="http://www.w3.org/2000/svg">
<g clip-path="url(#clip0_3305_16715)">
<path d="M13.9188 8.53905H10.51C10.373 8.53954 10.2371 8.51295 10.1103 8.46081C9.98357 8.40867 9.86833 8.332 9.77126 8.23521C9.67419 8.13842 9.59719 8.0234 9.54468 7.89677C9.49218 7.77014 9.4652 7.63438 9.4653 7.4973V4.07505C9.46625 3.68106 9.37674 3.29211 9.20366 2.93817C9.03059 2.58423 8.77858 2.27474 8.46705 2.03355C8.16936 1.79883 7.82183 1.63548 7.45115 1.55604C7.08048 1.47661 6.69653 1.48319 6.3288 1.5753C4.89734 1.93161 3.5861 2.66147 2.52901 3.69035C1.47192 4.71923 0.70686 6.01026 0.311973 7.43156C-0.0829146 8.85286 -0.0934788 10.3535 0.281359 11.7802C0.656197 13.207 1.403 14.5086 2.4455 15.5523C3.488 16.5959 4.78884 17.3442 6.21514 17.7206C7.64144 18.097 9.1421 18.0882 10.5638 17.6948C11.9856 17.3015 13.2775 16.5379 14.3075 15.482C15.3376 14.426 16.0689 13.1156 16.4268 11.6845C16.5197 11.3161 16.5268 10.9312 16.4475 10.5596C16.3682 10.1879 16.2046 9.83946 15.9693 9.54105C15.7253 9.23005 15.4141 8.97834 15.059 8.8048C14.7039 8.63126 14.3141 8.54041 13.9188 8.53905ZM14.2435 11.1333C13.9836 12.1796 13.4503 13.1381 12.6983 13.9107C11.9464 14.6832 11.0027 15.2422 9.9638 15.5304C8.92491 15.8186 7.82811 15.8256 6.7856 15.5508C5.74309 15.276 4.79228 14.7293 4.03044 13.9664C3.2686 13.2036 2.72306 12.252 2.44964 11.2092C2.17622 10.1663 2.18472 9.06949 2.47428 8.03098C2.76385 6.99247 3.32407 6.04952 4.09765 5.29857C4.87123 4.54763 5.8304 4.01565 6.87705 3.75705C6.89471 3.75262 6.91284 3.75035 6.93105 3.7503C6.98607 3.75238 7.03884 3.7727 7.08105 3.80805C7.12156 3.8399 7.15443 3.88041 7.17727 3.9266C7.20011 3.9728 7.21234 4.02352 7.21305 4.07505V7.4958C7.21295 7.92839 7.29812 8.35676 7.46369 8.75642C7.62926 9.15608 7.87198 9.51918 8.17797 9.82496C8.48397 10.1307 8.84724 10.3732 9.24701 10.5385C9.64678 10.7038 10.0752 10.7887 10.5078 10.7883H13.9165C13.9694 10.7887 14.0215 10.801 14.0689 10.8244C14.1163 10.8478 14.1578 10.8816 14.1903 10.9233C14.2155 10.9514 14.2335 10.9852 14.2428 11.0217C14.2521 11.0583 14.2523 11.0966 14.2435 11.1333Z" fill="#3F51B5"/>
<path d="M17.7396 5.58439C17.3943 4.31499 16.7235 3.15776 15.7937 2.22722C14.8638 1.29668 13.707 0.625081 12.4379 0.278888C12.2138 0.215398 11.9781 0.204585 11.7491 0.247293C11.5202 0.290001 11.3042 0.385074 11.1181 0.525081C10.932 0.665088 10.7807 0.846237 10.6762 1.05437C10.5717 1.26251 10.5167 1.49199 10.5156 1.72489V5.24989C10.5156 5.84662 10.7527 6.41892 11.1746 6.84088C11.5966 7.26284 12.1689 7.49989 12.7656 7.49989H16.3049C16.5364 7.49766 16.7642 7.44209 16.9708 7.3375C17.1773 7.2329 17.357 7.0821 17.4958 6.8968C17.6345 6.71151 17.7287 6.49671 17.771 6.26909C17.8133 6.04148 17.8026 5.80717 17.7396 5.58439Z" fill="#3F51B5"/>
</g>
<defs>
<clipPath id="clip0_3305_16715">
<rect width="18" height="18" fill="white"/>
</clipPath>
</defs>
</svg>
