<svg width="69" height="20" viewBox="0 0 69 20" fill="none" xmlns="http://www.w3.org/2000/svg">
<path d="M14.4948 8.10156C14.4948 8.10156 14.0876 13.1528 13.8513 15.2806C13.7388 16.2968 13.1111 16.8923 12.0828 16.9111C10.1261 16.9463 8.16706 16.9486 6.21106 16.9073C5.22181 16.8871 4.60456 16.2841 4.49431 15.2858C4.25656 13.1393 3.85156 8.10156 3.85156 8.10156" stroke="#D83D3D" stroke-width="1.5" stroke-linecap="round" stroke-linejoin="round"/>
<path d="M15.531 5.68066H2.8125" stroke="#D83D3D" stroke-width="1.5" stroke-linecap="round" stroke-linejoin="round"/>
<path d="M13.079 5.68023C12.4902 5.68023 11.9832 5.26398 11.8677 4.68723L11.6855 3.77523C11.573 3.35448 11.192 3.06348 10.7577 3.06348H7.58297C7.14872 3.06348 6.76772 3.35448 6.65522 3.77523L6.47297 4.68723C6.35747 5.26398 5.85047 5.68023 5.26172 5.68023" stroke="#D83D3D" stroke-width="1.5" stroke-linecap="round" stroke-linejoin="round"/>
<path d="M30.822 5.939C31.81 5.939 32.6637 6.12533 33.383 6.498C34.111 6.862 34.6657 7.38633 35.047 8.071C35.437 8.75567 35.632 9.56167 35.632 10.489C35.632 11.4163 35.437 12.2223 35.047 12.907C34.6657 13.583 34.111 14.103 33.383 14.467C32.6637 14.8223 31.81 15 30.822 15H28.001V5.939H30.822ZM30.822 14.025C31.992 14.025 32.8847 13.7173 33.5 13.102C34.1153 12.478 34.423 11.607 34.423 10.489C34.423 9.36233 34.111 8.48267 33.487 7.85C32.8717 7.21733 31.9833 6.901 30.822 6.901H29.184V14.025H30.822ZM43.6924 11.165C43.6924 11.3903 43.6794 11.6287 43.6534 11.88H37.9594C38.0027 12.582 38.2411 13.1323 38.6744 13.531C39.1164 13.921 39.6494 14.116 40.2734 14.116C40.7847 14.116 41.2094 13.999 41.5474 13.765C41.8941 13.5223 42.1367 13.2017 42.2754 12.803H43.5494C43.3587 13.4877 42.9774 14.0467 42.4054 14.48C41.8334 14.9047 41.1227 15.117 40.2734 15.117C39.5974 15.117 38.9907 14.9653 38.4534 14.662C37.9247 14.3587 37.5087 13.9297 37.2054 13.375C36.9021 12.8117 36.7504 12.1617 36.7504 11.425C36.7504 10.6883 36.8977 10.0427 37.1924 9.488C37.4871 8.93333 37.8987 8.50867 38.4274 8.214C38.9647 7.91067 39.5801 7.759 40.2734 7.759C40.9494 7.759 41.5474 7.90633 42.0674 8.201C42.5874 8.49567 42.9861 8.903 43.2634 9.423C43.5494 9.93433 43.6924 10.515 43.6924 11.165ZM42.4704 10.918C42.4704 10.4673 42.3707 10.0817 42.1714 9.761C41.9721 9.43167 41.6991 9.18467 41.3524 9.02C41.0144 8.84667 40.6374 8.76 40.2214 8.76C39.6234 8.76 39.1121 8.95067 38.6874 9.332C38.2714 9.71333 38.0331 10.242 37.9724 10.918H42.4704ZM46.4369 5.38V15H45.2539V5.38H46.4369ZM54.9531 11.165C54.9531 11.3903 54.9401 11.6287 54.9141 11.88H49.2201C49.2635 12.582 49.5018 13.1323 49.9351 13.531C50.3771 13.921 50.9101 14.116 51.5341 14.116C52.0455 14.116 52.4701 13.999 52.8081 13.765C53.1548 13.5223 53.3975 13.2017 53.5361 12.803H54.8101C54.6195 13.4877 54.2381 14.0467 53.6661 14.48C53.0941 14.9047 52.3835 15.117 51.5341 15.117C50.8581 15.117 50.2515 14.9653 49.7141 14.662C49.1855 14.3587 48.7695 13.9297 48.4661 13.375C48.1628 12.8117 48.0111 12.1617 48.0111 11.425C48.0111 10.6883 48.1585 10.0427 48.4531 9.488C48.7478 8.93333 49.1595 8.50867 49.6881 8.214C50.2255 7.91067 50.8408 7.759 51.5341 7.759C52.2101 7.759 52.8081 7.90633 53.3281 8.201C53.8481 8.49567 54.2468 8.903 54.5241 9.423C54.8101 9.93433 54.9531 10.515 54.9531 11.165ZM53.7311 10.918C53.7311 10.4673 53.6315 10.0817 53.4321 9.761C53.2328 9.43167 52.9598 9.18467 52.6131 9.02C52.2751 8.84667 51.8981 8.76 51.4821 8.76C50.8841 8.76 50.3728 8.95067 49.9481 9.332C49.5321 9.71333 49.2938 10.242 49.2331 10.918H53.7311ZM57.9577 8.851V13.05C57.9577 13.3967 58.0313 13.6437 58.1787 13.791C58.326 13.9297 58.5817 13.999 58.9457 13.999H59.8167V15H58.7507C58.092 15 57.598 14.8483 57.2687 14.545C56.9393 14.2417 56.7747 13.7433 56.7747 13.05V8.851H55.8517V7.876H56.7747V6.082H57.9577V7.876H59.8167V8.851H57.9577ZM67.75 11.165C67.75 11.3903 67.737 11.6287 67.711 11.88H62.017C62.0604 12.582 62.2987 13.1323 62.732 13.531C63.174 13.921 63.707 14.116 64.331 14.116C64.8424 14.116 65.267 13.999 65.605 13.765C65.9517 13.5223 66.1944 13.2017 66.333 12.803H67.607C67.4164 13.4877 67.035 14.0467 66.463 14.48C65.891 14.9047 65.1804 15.117 64.331 15.117C63.655 15.117 63.0484 14.9653 62.511 14.662C61.9824 14.3587 61.5664 13.9297 61.263 13.375C60.9597 12.8117 60.808 12.1617 60.808 11.425C60.808 10.6883 60.9554 10.0427 61.25 9.488C61.5447 8.93333 61.9564 8.50867 62.485 8.214C63.0224 7.91067 63.6377 7.759 64.331 7.759C65.007 7.759 65.605 7.90633 66.125 8.201C66.645 8.49567 67.0437 8.903 67.321 9.423C67.607 9.93433 67.75 10.515 67.75 11.165ZM66.528 10.918C66.528 10.4673 66.4284 10.0817 66.229 9.761C66.0297 9.43167 65.7567 9.18467 65.41 9.02C65.072 8.84667 64.695 8.76 64.279 8.76C63.681 8.76 63.1697 8.95067 62.745 9.332C62.329 9.71333 62.0907 10.242 62.03 10.918H66.528Z" fill="#D83D3D"/>
</svg>
