<svg width="51" height="20" viewBox="0 0 51 20" fill="none" xmlns="http://www.w3.org/2000/svg">
<path d="M8.619 3.0918H5.81475C3.5085 3.0918 2.0625 4.72455 2.0625 7.03605V13.2715C2.0625 15.583 3.50175 17.2158 5.81475 17.2158H12.4327C14.7465 17.2158 16.1857 15.583 16.1857 13.2715V10.2505" stroke="#3F51B5" stroke-width="1.5" stroke-linecap="round" stroke-linejoin="round"/>
<path fill-rule="evenodd" clip-rule="evenodd" d="M6.62097 9.19038L12.2257 3.58563C12.924 2.88812 14.0557 2.88812 14.754 3.58563L15.6667 4.49838C16.365 5.19663 16.365 6.32913 15.6667 7.02663L10.035 12.6584C9.72972 12.9636 9.31572 13.1354 8.88372 13.1354H6.07422L6.14472 10.3004C6.15522 9.88338 6.32547 9.48588 6.62097 9.19038Z" stroke="#3F51B5" stroke-width="1.5" stroke-linecap="round" stroke-linejoin="round"/>
<path d="M11.375 4.45117L14.7995 7.87567" stroke="#3F51B5" stroke-width="1.5" stroke-linecap="round" stroke-linejoin="round"/>
<path d="M29.184 6.901V9.93H32.486V10.905H29.184V14.025H32.876V15H28.001V5.926H32.876V6.901H29.184ZM34.224 11.412C34.224 10.684 34.3714 10.047 34.666 9.501C34.9607 8.94633 35.3637 8.51733 35.875 8.214C36.395 7.91067 36.9757 7.759 37.617 7.759C38.1717 7.759 38.6874 7.889 39.164 8.149C39.6407 8.40033 40.0047 8.734 40.256 9.15V5.38H41.452V15H40.256V13.661C40.022 14.0857 39.6754 14.4367 39.216 14.714C38.7567 14.9827 38.2194 15.117 37.604 15.117C36.9714 15.117 36.395 14.961 35.875 14.649C35.3637 14.337 34.9607 13.8993 34.666 13.336C34.3714 12.7727 34.224 12.1313 34.224 11.412ZM40.256 11.425C40.256 10.8877 40.1477 10.4197 39.931 10.021C39.7144 9.62233 39.4197 9.319 39.047 9.111C38.683 8.89433 38.28 8.786 37.838 8.786C37.396 8.786 36.993 8.89 36.629 9.098C36.265 9.306 35.9747 9.60933 35.758 10.008C35.5414 10.4067 35.433 10.8747 35.433 11.412C35.433 11.958 35.5414 12.4347 35.758 12.842C35.9747 13.2407 36.265 13.5483 36.629 13.765C36.993 13.973 37.396 14.077 37.838 14.077C38.28 14.077 38.683 13.973 39.047 13.765C39.4197 13.5483 39.7144 13.2407 39.931 12.842C40.1477 12.4347 40.256 11.9623 40.256 11.425ZM44.0622 6.719C43.8369 6.719 43.6462 6.641 43.4902 6.485C43.3342 6.329 43.2562 6.13833 43.2562 5.913C43.2562 5.68767 43.3342 5.497 43.4902 5.341C43.6462 5.185 43.8369 5.107 44.0622 5.107C44.2789 5.107 44.4609 5.185 44.6082 5.341C44.7642 5.497 44.8422 5.68767 44.8422 5.913C44.8422 6.13833 44.7642 6.329 44.6082 6.485C44.4609 6.641 44.2789 6.719 44.0622 6.719ZM44.6342 7.876V15H43.4512V7.876H44.6342ZM48.0934 8.851V13.05C48.0934 13.3967 48.1671 13.6437 48.3144 13.791C48.4617 13.9297 48.7174 13.999 49.0814 13.999H49.9524V15H48.8864C48.2277 15 47.7337 14.8483 47.4044 14.545C47.0751 14.2417 46.9104 13.7433 46.9104 13.05V8.851H45.9874V7.876H46.9104V6.082H48.0934V7.876H49.9524V8.851H48.0934Z" fill="#3F51B5"/>
</svg>
