<svg width="112" height="40" viewBox="0 0 112 40" fill="none" xmlns="http://www.w3.org/2000/svg">
<g filter="url(#filter0_d_3305_16661)">
<rect x="5" y="5" width="102" height="30" rx="15" fill="#F1F3FA" shape-rendering="crispEdges"/>
<g clip-path="url(#clip0_3305_16661)">
<path d="M24.1985 14.3307V24.9523C24.1985 24.9735 24.1981 24.9947 24.1971 25.0159C24.1638 25.7434 23.5633 26.3234 22.8271 26.3234H15.1175C14.3601 26.3234 13.7461 25.7094 13.7461 24.9523V12.6546C13.7461 12.0035 14.1996 11.4585 14.8079 11.3182C14.9076 11.2952 15.0111 11.2832 15.1175 11.2832H21.2414C21.4496 11.2832 21.6529 11.3306 21.837 11.4196C22.2075 11.598 22.3118 11.8233 22.9776 12.504C23.7436 13.3357 23.9264 13.421 24.0825 13.7811C24.1585 13.9528 24.1985 14.1394 24.1985 14.3307Z" fill="#FFC477"/>
<path d="M24.1967 14.3307V24.9523C24.1967 24.9735 24.1963 24.9947 24.1953 25.016C24.0956 25.039 23.992 25.051 23.8857 25.051H16.1761C15.4187 25.051 14.8047 24.437 14.8047 23.6799V11.3822C14.8047 11.3606 14.805 11.3394 14.8061 11.3182C14.9058 11.2952 15.0093 11.2832 15.1157 11.2832H21.2397C21.4478 11.2832 21.6511 11.3306 21.8352 11.4196C21.9865 11.4925 22.1247 11.5935 22.2417 11.7187L22.9758 12.5041L23.8164 13.3835C23.9284 13.5005 24.0175 13.6351 24.0807 13.7811C24.1567 13.9528 24.1967 14.1395 24.1967 14.3307Z" fill="#FFDAAA"/>
<path d="M27.7167 19.0864V26.7967C27.7167 27.2254 27.5774 27.622 27.3413 27.9429C26.9889 28.4229 26.4202 28.7347 25.7787 28.7347H20.7427C19.6724 28.7347 18.8047 27.8669 18.8047 26.7967V19.0864C18.8047 18.2866 19.2896 17.5998 19.9813 17.304C20.215 17.2039 20.4723 17.1484 20.7427 17.1484H25.7787C26.8493 17.1484 27.7167 18.0162 27.7167 19.0864Z" fill="#4CBA68"/>
<path d="M27.7162 19.0864V26.7967C27.7162 27.2254 27.5769 27.622 27.3408 27.9429C27.1071 28.0429 26.8498 28.0984 26.5794 28.0984H21.5435C20.4732 28.0984 19.6055 27.2307 19.6055 26.1605V18.4502C19.6055 18.0215 19.7447 17.6249 19.9808 17.304C20.2145 17.2039 20.4718 17.1484 20.7422 17.1484H25.7782C26.8488 17.1484 27.7162 18.0162 27.7162 19.0864Z" fill="#7CCC92"/>
<path d="M24.0008 24.156V25.0616C24.0008 25.2217 23.8711 25.3514 23.7114 25.3514H22.8055C22.6454 25.3514 22.5156 25.2217 22.5156 25.0616V24.156C22.5156 23.9959 22.6454 23.8662 22.8055 23.8662H23.7114C23.8711 23.8662 24.0008 23.9959 24.0008 24.156Z" fill="#2C733F"/>
<path d="M26.3851 18.9052V19.8754C26.3851 20.2204 26.1055 20.5003 25.7602 20.5003H20.7616C20.4166 20.5003 20.1367 20.2204 20.1367 19.8754V18.9052C20.1367 18.5602 20.4167 18.2803 20.7616 18.2803H25.7602C26.1055 18.2803 26.3851 18.5602 26.3851 18.9052Z" fill="#1E81CE"/>
<path d="M26.3833 18.9052V19.8754C26.3833 20.2204 26.1037 20.5003 25.7584 20.5003H21.8202C21.4752 20.5003 21.1953 20.2204 21.1953 19.8754V18.9052C21.1953 18.5602 21.4753 18.2803 21.8202 18.2803H25.7584C26.1037 18.2803 26.3833 18.5602 26.3833 18.9052Z" fill="#3D9AE2"/>
<path d="M21.6223 24.156V25.0616C21.6223 25.2217 21.4926 25.3514 21.3325 25.3514H20.4265C20.2668 25.3514 20.1367 25.2217 20.1367 25.0616V24.156C20.1367 23.9959 20.2668 23.8662 20.4265 23.8662H21.3325C21.4926 23.8662 21.6223 23.9959 21.6223 24.156Z" fill="#2C733F"/>
<path d="M24.0047 21.7879V22.6934C24.0047 22.8535 23.875 22.9833 23.7153 22.9833H22.8094C22.6493 22.9833 22.5195 22.8535 22.5195 22.6934V21.7879C22.5195 21.6278 22.6493 21.498 22.8094 21.498H23.7153C23.875 21.498 24.0047 21.6278 24.0047 21.7879Z" fill="#2C733F"/>
<path d="M26.411 21.7879V22.6934C26.411 22.8535 26.2813 22.9833 26.1212 22.9833H25.2156C25.0555 22.9833 24.9258 22.8535 24.9258 22.6934V21.7879C24.9258 21.6278 25.0555 21.498 25.2156 21.498H26.1212C26.2813 21.498 26.411 21.6278 26.411 21.7879Z" fill="#EE8700"/>
<path d="M21.6223 21.7879V22.6934C21.6223 22.8535 21.4926 22.9833 21.3325 22.9833H20.4265C20.2668 22.9833 20.1367 22.8535 20.1367 22.6934V21.7879C20.1367 21.6278 20.2668 21.498 20.4265 21.498H21.3325C21.4926 21.498 21.6223 21.6278 21.6223 21.7879Z" fill="#2C733F"/>
<path d="M24.0047 26.4076V27.3135C24.0047 27.4736 23.875 27.6034 23.7153 27.6034H22.8094C22.6493 27.6034 22.5195 27.4736 22.5195 27.3135V26.4076C22.5195 26.2479 22.6493 26.1182 22.8094 26.1182H23.7153C23.875 26.1182 24.0047 26.2479 24.0047 26.4076Z" fill="#2C733F"/>
<path d="M21.6223 26.4076V27.3135C21.6223 27.4736 21.4926 27.6034 21.3325 27.6034H20.4265C20.2668 27.6034 20.1367 27.4736 20.1367 27.3135V26.4076C20.1367 26.2479 20.2668 26.1182 20.4265 26.1182H21.3325C21.4926 26.1182 21.6223 26.2479 21.6223 26.4076Z" fill="#2C733F"/>
<path d="M26.411 24.2967V27.1092C26.411 27.3824 26.1897 27.6036 25.9169 27.6036H25.4199C25.147 27.6036 24.9258 27.3824 24.9258 27.1092V24.2967C24.9258 24.0589 25.1188 23.8662 25.3563 23.8662H25.9805C26.2184 23.8662 26.411 24.0589 26.411 24.2967Z" fill="#EE8700"/>
<path d="M24.0047 24.156V24.4254C24.0047 24.5855 23.875 24.7152 23.7153 24.7152H22.8094C22.6493 24.7152 22.5195 24.5855 22.5195 24.4254V24.156C22.5195 23.9959 22.6493 23.8662 22.8094 23.8662H23.7153C23.875 23.8662 24.0047 23.9959 24.0047 24.156Z" fill="#317F46"/>
<path d="M21.6223 24.156V24.4254C21.6223 24.5855 21.4926 24.7152 21.3325 24.7152H20.4265C20.2668 24.7152 20.1367 24.5855 20.1367 24.4254V24.156C20.1367 23.9959 20.2668 23.8662 20.4265 23.8662H21.3325C21.4926 23.8662 21.6223 23.9959 21.6223 24.156Z" fill="#317F46"/>
<path d="M24.0047 21.7879V22.0572C24.0047 22.2173 23.875 22.347 23.7153 22.347H22.8094C22.6493 22.347 22.5195 22.2173 22.5195 22.0572V21.7879C22.5195 21.6278 22.6493 21.498 22.8094 21.498H23.7153C23.875 21.498 24.0047 21.6278 24.0047 21.7879Z" fill="#317F46"/>
<path d="M26.411 21.7879V22.0572C26.411 22.2173 26.2813 22.347 26.1212 22.347H25.2156C25.0555 22.347 24.9258 22.2173 24.9258 22.0572V21.7879C24.9258 21.6278 25.0555 21.498 25.2156 21.498H26.1212C26.2813 21.498 26.411 21.6278 26.411 21.7879Z" fill="#FF9811"/>
<path d="M21.6223 21.7879V22.0572C21.6223 22.2173 21.4926 22.347 21.3325 22.347H20.4265C20.2668 22.347 20.1367 22.2173 20.1367 22.0572V21.7879C20.1367 21.6278 20.2668 21.498 20.4265 21.498H21.3325C21.4926 21.498 21.6223 21.6278 21.6223 21.7879Z" fill="#317F46"/>
<path d="M24.0047 26.4076V26.6773C24.0047 26.8374 23.875 26.9672 23.7153 26.9672H22.8094C22.6493 26.9672 22.5195 26.8374 22.5195 26.6773V26.4076C22.5195 26.2479 22.6493 26.1182 22.8094 26.1182H23.7153C23.875 26.1182 24.0047 26.2479 24.0047 26.4076Z" fill="#317F46"/>
<path d="M21.6223 26.4076V26.6773C21.6223 26.8374 21.4926 26.9672 21.3325 26.9672H20.4265C20.2668 26.9672 20.1367 26.8374 20.1367 26.6773V26.4076C20.1367 26.2479 20.2668 26.1182 20.4265 26.1182H21.3325C21.4926 26.1182 21.6223 26.2479 21.6223 26.4076Z" fill="#317F46"/>
<path d="M26.411 24.2967V26.4729C26.411 26.7462 26.1897 26.9674 25.9169 26.9674H25.4199C25.147 26.9674 24.9258 26.7461 24.9258 26.4729V24.2967C24.9258 24.0589 25.1188 23.8662 25.3563 23.8662H25.9805C26.2184 23.8662 26.411 24.0589 26.411 24.2967Z" fill="#FF9811"/>
<path d="M24.0816 13.7803H22.3631C22.072 13.7803 21.8359 13.5443 21.8359 13.2531V11.4189C21.9873 11.4917 22.1255 11.5928 22.2424 11.7178L22.9768 12.5032L23.8172 13.3828C23.9291 13.4997 24.0182 13.6344 24.0816 13.7803Z" fill="#FFB655"/>
<path d="M17.8987 27.902C17.8987 28.0869 17.8231 28.2544 17.7015 28.3764C17.5795 28.498 17.412 28.5736 17.2272 28.5736H13.113C12.7436 28.5736 12.4414 28.2714 12.4414 27.902C12.4414 27.7172 12.5171 27.5496 12.6386 27.4277C12.7606 27.3061 12.9281 27.2305 13.113 27.2305H17.2272C17.5965 27.2305 17.8987 27.5327 17.8987 27.902Z" fill="#AA6100"/>
<path d="M17.8987 26.5583C17.8987 26.7431 17.8231 26.9107 17.7015 27.0326C17.5795 27.1542 17.412 27.2298 17.2272 27.2298H13.113C12.7436 27.2298 12.4414 26.9276 12.4414 26.5583C12.4414 26.3734 12.5171 26.2059 12.6386 26.0839C12.7606 25.9623 12.9281 25.8867 13.113 25.8867H17.2272C17.5965 25.8867 17.8987 26.1889 17.8987 26.5583Z" fill="#CC7400"/>
<path d="M17.8987 25.2145C17.8987 25.3994 17.8231 25.5669 17.7015 25.6889C17.5795 25.8105 17.412 25.8861 17.2272 25.8861H13.113C12.7436 25.8861 12.4414 25.5839 12.4414 25.2145C12.4414 25.0297 12.5171 24.8621 12.6386 24.7402C12.7606 24.6186 12.9281 24.543 13.113 24.543H17.2272C17.5965 24.543 17.8987 24.8452 17.8987 25.2145Z" fill="#EE8700"/>
<path d="M17.8987 23.8728C17.8987 24.0576 17.8231 24.2252 17.7015 24.3471C17.5795 24.4687 17.412 24.5443 17.2272 24.5443H13.113C12.7436 24.5443 12.4414 24.2421 12.4414 23.8728C12.4414 23.7413 12.4799 23.6183 12.546 23.5143C12.5725 23.4723 12.6037 23.4334 12.6386 23.3984C12.7606 23.2768 12.9281 23.2012 13.113 23.2012H17.2272C17.5965 23.2012 17.8987 23.5034 17.8987 23.8728Z" fill="#FF9811"/>
<path d="M17.227 23.2005H13.113C12.7436 23.2005 12.4414 22.8983 12.4414 22.529C12.4414 22.1596 12.7436 21.8574 13.113 21.8574H17.227C17.5964 21.8574 17.8986 22.1596 17.8986 22.529C17.8986 22.8983 17.5964 23.2005 17.227 23.2005Z" fill="#FFA733"/>
<path d="M15.538 26.3699C15.4952 25.3675 14.7845 24.5513 13.8531 24.3329C13.6636 24.2885 13.465 24.2688 13.2608 24.2774V24.2773H12.4046C10.4633 24.3615 9.55844 26.7794 11.045 28.0987C11.4546 28.4628 12.001 28.6746 12.5917 28.6493H13.2607V28.6486C13.3218 28.651 13.3834 28.6516 13.4455 28.649C13.5851 28.643 13.7209 28.6239 13.852 28.5935C14.8014 28.3719 15.5037 27.536 15.5383 26.5424V26.54C15.5405 26.4837 15.5405 26.4271 15.538 26.3699Z" fill="#CC7400"/>
<path d="M15.5367 26.54V26.5424C15.502 27.536 14.7997 28.3719 13.8503 28.5935C12.9197 28.3747 12.2089 27.559 12.1661 26.5569C12.1658 26.552 12.1654 26.5474 12.1654 26.5424V26.54C12.1283 25.4796 12.8529 24.5663 13.8514 24.333C14.7828 24.5514 15.4936 25.3676 15.5363 26.37C15.5388 26.4272 15.5388 26.4838 15.5367 26.54Z" fill="#EE8700"/>
<path d="M25.7778 16.8836H24.4803V14.3302C24.4803 13.893 24.3064 13.4855 24.0218 13.1875L23.1835 12.3102C22.472 11.5772 22.3822 11.3701 21.9584 11.1644C21.7615 11.0661 21.5021 11 21.2406 11H15.1166C14.2044 11 13.4624 11.7423 13.4624 12.6542V21.5746H13.1136C12.5873 21.5746 12.1593 22.0027 12.1593 22.529C12.1593 22.7909 12.2653 23.028 12.4364 23.2005C12.2653 23.373 12.1593 23.6102 12.1593 23.8721C12.1593 23.9703 12.1731 24.0287 12.178 24.0608C10.1071 24.2715 9.28213 26.8347 10.7977 28.2259C11.2555 28.6462 11.8631 28.8844 12.5219 28.8575C12.7396 28.8575 17.2221 28.8558 17.2278 28.8558C17.7537 28.8558 18.1821 28.4278 18.1821 27.9015C18.1821 27.6396 18.076 27.4024 17.905 27.2299C18.0658 27.0677 18.169 26.8489 18.1807 26.6057H18.5387V26.7969C18.5387 28.0118 19.527 29 20.7418 29H25.7778C26.9926 29 27.9809 28.0118 27.9809 26.7969V19.0867C27.9809 17.8719 26.9926 16.8836 25.7778 16.8836ZM22.1189 11.9999C23.2294 13.1737 23.4797 13.4385 23.5267 13.4883C23.5267 13.4883 23.527 13.4883 23.5274 13.489C23.5277 13.489 23.5277 13.489 23.5277 13.489C23.5281 13.4897 23.5288 13.4904 23.5291 13.4908L23.5295 13.4911C23.5302 13.4922 23.5309 13.4929 23.5316 13.4932C23.5319 13.4936 23.5323 13.4939 23.5326 13.4947C23.533 13.495 23.5333 13.495 23.5333 13.4954C23.5337 13.4957 23.534 13.4957 23.5344 13.4964C23.5351 13.4968 23.5355 13.4975 23.5358 13.4978H22.1188L22.1189 11.9999ZM13.1136 22.1402H17.2278C17.442 22.1402 17.6166 22.3148 17.6166 22.529C17.6166 22.7435 17.442 22.9178 17.2278 22.9178H13.1136C12.8994 22.9178 12.7248 22.7435 12.7248 22.529C12.7248 22.3148 12.8994 22.1402 13.1136 22.1402ZM13.1136 23.4833H17.2278C17.442 23.4833 17.6166 23.6579 17.6166 23.8721C17.6166 24.0866 17.442 24.2609 17.2278 24.2609H14.386C14.2704 24.2079 14.1506 24.1647 14.0279 24.1315C13.8448 24.0816 13.6554 24.0534 13.4624 24.0484C13.4069 24.047 13.3514 24.0474 13.2959 24.0498H12.7683C12.7403 23.9965 12.7248 23.936 12.7248 23.872C12.7248 23.6579 12.8994 23.4833 13.1136 23.4833ZM17.6166 25.2152C17.6166 25.4298 17.442 25.604 17.2278 25.604H15.6454C15.5379 25.3181 15.376 25.0547 15.1654 24.8264H17.2278C17.442 24.8264 17.6166 25.001 17.6166 25.2152ZM11.7379 24.7077C11.5658 24.871 11.4127 25.065 11.2926 25.2789H10.9632C11.1784 25.012 11.446 24.8222 11.7379 24.7077ZM10.6624 25.809H11.0741C11.065 25.8486 11.0183 26.0009 10.9971 26.2328H10.562C10.579 26.0872 10.6125 25.9451 10.6624 25.809ZM10.708 27.2105C10.6454 27.0684 10.6005 26.9182 10.5751 26.763H11.007C11.0844 27.202 11.0886 27.1263 11.1081 27.2105H10.708ZM11.0607 27.7406C11.2342 27.7403 11.335 27.7413 11.3587 27.7399C11.4643 27.9067 11.5916 28.0612 11.739 28.2001C11.4827 28.0994 11.2548 27.9457 11.0607 27.7406ZM13.4734 28.3277C12.4388 28.3723 11.563 27.571 11.5192 26.534C11.4481 24.883 13.42 23.9322 14.6617 25.0721C15.8857 26.1957 15.1406 28.2592 13.4734 28.3277ZM17.2278 28.2903H14.9456C15.1983 28.0764 15.4057 27.8117 15.5531 27.5127H17.2278C17.442 27.5127 17.6166 27.6873 17.6166 27.9015C17.6166 28.116 17.442 28.2903 17.2278 28.2903ZM17.6134 26.6057C17.5901 26.798 17.4261 26.9472 17.2278 26.9472H15.7482C15.7995 26.7019 15.814 26.4375 15.7825 26.1696H17.2278C17.466 26.1695 17.6438 26.3827 17.6134 26.6057ZM18.5387 26.0402H18.0283C17.9926 25.9847 17.9513 25.9334 17.905 25.8868C18.2743 25.5142 18.2747 24.9162 17.905 24.5437C18.076 24.3712 18.1821 24.134 18.1821 23.8721C18.1821 23.6102 18.076 23.373 17.905 23.2006C18.4995 22.6011 18.0746 21.5747 17.2278 21.5747H14.0279V12.6542C14.0279 12.054 14.5164 11.5655 15.1166 11.5655H21.5533V13.7806C21.5533 13.9368 21.6799 14.0634 21.8361 14.0634H23.8812C23.9402 14.2924 23.9038 14.2168 23.9148 16.8836H20.7418C19.527 16.8836 18.5387 17.8718 18.5387 19.0866V26.0402ZM27.4507 26.7969C27.4507 27.7194 26.7004 28.4698 25.7778 28.4698H20.7418C19.8197 28.4698 19.0689 27.7195 19.0689 26.7969V19.0867C19.0689 18.1642 19.8196 17.4138 20.7418 17.4138H25.7779C26.7004 17.4138 27.4508 18.1641 27.4508 19.0867V26.7969H27.4507Z" fill="black"/>
<path d="M21.7228 20.2357H20.7611C20.5632 20.2357 20.4013 20.0737 20.4013 19.8758V18.9056C20.4013 18.7077 20.5632 18.5458 20.7611 18.5458H25.7596C25.9583 18.5458 26.1194 18.7073 26.1194 18.9056V19.8758C26.1194 20.0741 25.9583 20.2357 25.7596 20.2357H22.8659C22.7195 20.2357 22.6008 20.3544 22.6008 20.5008C22.6008 20.6471 22.7195 20.7658 22.8659 20.7658H25.7596C26.2506 20.7658 26.6496 20.3664 26.6496 19.8758V18.9056C26.6496 18.415 26.2505 18.0156 25.7596 18.0156H20.7611C20.2696 18.0156 19.8711 18.4141 19.8711 18.9056V19.8758C19.8711 20.3674 20.2696 20.7658 20.7611 20.7658H21.7228C21.8692 20.7658 21.9879 20.6471 21.9879 20.5008C21.9879 20.3544 21.8692 20.2357 21.7228 20.2357Z" fill="black"/>
<path d="M20.426 25.6169H21.3319C21.638 25.6169 21.8868 25.3681 21.8868 25.062V24.1565C21.8868 23.8504 21.638 23.6016 21.3319 23.6016H20.426C20.1202 23.6016 19.8711 23.8504 19.8711 24.1565V25.062C19.8711 25.3681 20.1202 25.6169 20.426 25.6169ZM20.4013 24.1565C20.4013 24.1427 20.4126 24.1317 20.426 24.1317H21.3319C21.3453 24.1317 21.3567 24.1427 21.3567 24.1565V25.062C21.3567 25.0758 21.3453 25.0868 21.3319 25.0868H20.426C20.4126 25.0868 20.4013 25.0758 20.4013 25.062V24.1565Z" fill="black"/>
<path d="M26.1245 21.2324H25.219C24.9129 21.2324 24.6641 21.4813 24.6641 21.7873V22.6929C24.6641 22.999 24.9129 23.2478 25.219 23.2478H26.1245C26.4306 23.2478 26.6794 22.999 26.6794 22.6929V21.7873C26.6794 21.4813 26.4306 21.2324 26.1245 21.2324ZM26.1493 22.6929C26.1493 22.7067 26.1383 22.7176 26.1245 22.7176H25.219C25.2055 22.7176 25.1942 22.7067 25.1942 22.6929C25.2052 21.7969 25.1712 21.7626 25.219 21.7626H26.1245C26.1383 21.7626 26.1493 21.7735 26.1493 21.7873V22.6929Z" fill="black"/>
<path d="M20.426 23.2478H21.3319C21.638 23.2478 21.8868 22.999 21.8868 22.6929V21.7873C21.8868 21.4812 21.638 21.2324 21.3319 21.2324H20.426C20.1202 21.2324 19.8711 21.4813 19.8711 21.7873V22.6929C19.8711 22.999 20.1202 23.2478 20.426 23.2478ZM20.4013 21.7873C20.4013 21.7735 20.4126 21.7626 20.426 21.7626H21.3319C21.3453 21.7626 21.3567 21.7735 21.3567 21.7873V22.6929C21.3567 22.7067 21.3453 22.7176 21.3319 22.7176H20.426C20.4126 22.7176 20.4013 22.7067 20.4013 22.6929V21.7873Z" fill="black"/>
<path d="M21.7482 26.0405C21.6463 25.926 21.4979 25.8535 21.3329 25.8535H20.4269C20.2619 25.8535 20.1134 25.926 20.012 26.0405C19.8194 26.2564 19.8848 26.4918 19.872 26.606V27.314C19.872 27.6201 20.1212 27.8689 20.4269 27.8689H21.3329C21.639 27.8689 21.8878 27.62 21.8878 27.314V26.606C21.875 26.4943 21.9397 26.2564 21.7482 26.0405ZM21.3329 27.3387C20.4379 27.3278 20.4022 27.3617 20.4022 27.314C20.4022 26.3551 20.3916 26.3837 20.4269 26.3837H21.3329C21.3763 26.3837 21.3495 26.4441 21.3576 26.606C21.3576 26.606 21.3806 27.3387 21.3329 27.3387Z" fill="black"/>
<path d="M25.98 23.6016H25.3558C24.9723 23.6016 24.6602 23.9137 24.6602 24.2972V27.1096C24.6602 27.5284 25.0009 27.8692 25.4194 27.8692H25.9164C26.3352 27.8692 26.6756 27.5284 26.6756 27.1096V24.2972C26.6756 23.9137 26.3638 23.6016 25.98 23.6016ZM26.1454 27.1096C26.1454 27.2361 26.0429 27.339 25.9164 27.339H25.4194C25.2932 27.339 25.1903 27.2361 25.1903 27.1096V24.2972C25.1903 24.206 25.2646 24.1318 25.3558 24.1318H25.98C26.0712 24.1318 26.1454 24.206 26.1454 24.2972L26.1454 27.1096Z" fill="black"/>
<path d="M16.8416 18.6998C16.5184 18.5811 16.2849 18.4953 16.2849 18.1958C16.2849 17.9229 16.4662 17.7846 16.8236 17.7846C17.203 17.7846 17.3052 17.9516 17.4389 17.9516C17.5844 17.9516 17.6648 17.7972 17.6648 17.6904C17.6648 17.4696 17.3046 17.3601 16.9825 17.3312V17.1321C16.9825 16.9935 16.8699 16.8809 16.7314 16.8809C16.5928 16.8809 16.4802 16.9935 16.4802 17.1321V17.3629C16.0398 17.4675 15.7979 17.7716 15.7979 18.2222C15.7979 18.8392 16.2521 19.0099 16.6172 19.1471C16.9746 19.2814 17.2569 19.3875 17.2569 19.7956C17.2569 20.1326 17.0698 20.3035 16.7006 20.3035C16.1603 20.3035 16.1553 19.9388 15.9492 19.9388C15.8215 19.9388 15.7188 20.0816 15.7188 20.1999C15.7188 20.4088 16.0298 20.6834 16.4802 20.7546V20.947C16.4802 21.0855 16.5928 21.1982 16.7314 21.1982C16.8699 21.1982 16.9825 21.0855 16.9825 20.947V20.7495C17.4669 20.6583 17.744 20.3026 17.744 19.7692C17.7439 19.0314 17.2437 18.8476 16.8416 18.6998Z" fill="black"/>
<path d="M23.7117 25.8535H22.8058C22.6407 25.8535 22.4923 25.926 22.3905 26.0405C22.1986 26.2568 22.2636 26.4918 22.2509 26.606V27.314C22.2509 27.6201 22.4997 27.8689 22.8058 27.8689H23.7117C24.0174 27.8689 24.2662 27.62 24.2662 27.314V26.4081C24.2662 26.2515 24.2009 26.1098 24.0962 26.009C23.9966 25.9129 23.8609 25.8535 23.7117 25.8535ZM23.7117 27.3387C22.8167 27.3278 22.781 27.3617 22.781 27.314V26.4081C22.781 26.3946 22.7924 26.3837 22.8058 26.3837H23.7117C23.7251 26.3837 23.7361 26.3946 23.7361 26.4081C23.7255 27.3052 23.7587 27.3387 23.7117 27.3387Z" fill="black"/>
<path d="M23.7108 21.2324H22.8049C22.4988 21.2324 22.25 21.4813 22.25 21.7873V22.6929C22.25 22.999 22.4988 23.2478 22.8049 23.2478H23.7108C23.7822 23.2478 23.8501 23.2344 23.9126 23.2096C24.119 23.1287 24.2654 22.9276 24.2654 22.6928V21.7873C24.2654 21.4802 24.0151 21.2324 23.7108 21.2324ZM23.7352 22.6929C23.7352 22.7067 23.7242 22.7176 23.7108 22.7176H22.8049C22.7915 22.7176 22.7802 22.7067 22.7802 22.6929V21.7873C22.7802 21.7396 22.813 21.7732 23.7108 21.7626C23.7242 21.7626 23.7352 21.7735 23.7352 21.7873V22.6929Z" fill="black"/>
<path d="M23.9126 23.6397C23.8501 23.615 23.7822 23.6016 23.7108 23.6016H22.8049C22.4988 23.6016 22.25 23.8504 22.25 24.1565V25.062C22.25 25.3681 22.4988 25.6169 22.8049 25.6169H23.7108C24.0166 25.6169 24.2654 25.3681 24.2654 25.062V24.1565C24.2654 23.9218 24.119 23.7207 23.9126 23.6397ZM23.7352 25.062C23.7352 25.0758 23.7242 25.0868 23.7108 25.0868H22.8049C22.7915 25.0868 22.7802 25.0758 22.7802 25.062V24.1565C22.7802 24.1427 22.7915 24.1317 22.8049 24.1317H23.7108C23.7242 24.1317 23.7352 24.1427 23.7352 24.1565V25.062Z" fill="black"/>
<path d="M21.5151 15.1532H22.181C22.3273 15.1532 22.4461 15.0348 22.4461 14.8881C22.4461 14.7418 22.3273 14.623 22.181 14.623H21.5151C21.3688 14.623 21.25 14.7418 21.25 14.8881C21.25 15.0348 21.3687 15.1532 21.5151 15.1532Z" fill="black"/>
<path d="M15.7573 15.1532H20.4582C20.6045 15.1532 20.7233 15.0348 20.7233 14.8881C20.7233 14.7418 20.6045 14.623 20.4582 14.623H15.7573C15.6109 14.623 15.4922 14.7418 15.4922 14.8881C15.4922 15.0348 15.6109 15.1532 15.7573 15.1532Z" fill="black"/>
<path d="M16.5999 16.4686C16.7462 16.4686 16.865 16.3499 16.865 16.2036C16.865 16.0572 16.7462 15.9385 16.5999 15.9385H15.7573C15.6109 15.9385 15.4922 16.0572 15.4922 16.2036C15.4922 16.3499 15.6109 16.4686 15.7573 16.4686H16.5999Z" fill="black"/>
<path d="M22.4489 16.2036C22.4489 16.0572 22.3302 15.9385 22.1839 15.9385H17.6596C17.5133 15.9385 17.3945 16.0572 17.3945 16.2036C17.3945 16.3499 17.5133 16.4686 17.6596 16.4686H22.1838C22.3302 16.4686 22.4489 16.3499 22.4489 16.2036Z" fill="black"/>
<path d="M13.2944 25.9114C13.2944 25.8447 13.3189 25.8256 13.3419 25.8129C13.4131 25.7735 13.5765 25.7619 13.7262 25.8389C13.7659 25.8593 13.811 25.8825 13.8696 25.8825C14.1311 25.8825 14.3379 25.3966 13.7133 25.2892V25.2725C13.7133 25.1244 13.5928 25.0039 13.4447 25.0039C13.2966 25.0039 13.1761 25.1244 13.1761 25.2725V25.3235C12.9144 25.4184 12.7663 25.6343 12.7663 25.9272C12.7663 26.3793 13.0948 26.5028 13.3347 26.5929C13.5634 26.6788 13.6426 26.7164 13.6426 26.872C13.6426 26.9693 13.6164 27.0594 13.4262 27.0594C13.1491 27.0594 13.1823 26.8403 12.9749 26.8403C12.8283 26.8403 12.7188 26.9853 12.7188 27.1149C12.7188 27.2986 12.9097 27.4729 13.1761 27.5435V27.5636C13.1761 27.7117 13.2966 27.8323 13.4447 27.8323C13.5928 27.8323 13.7133 27.7118 13.7133 27.5636V27.5365C14.0015 27.4439 14.1706 27.1957 14.1706 26.8562C14.1707 26.0507 13.2944 26.1716 13.2944 25.9114Z" fill="black"/>
</g>
<path d="M44.4512 22.834V24H39.9219V22.834H44.4512ZM40.3379 15.4688V24H38.8672V15.4688H40.3379ZM43.8594 19.0312V20.1797H39.9219V19.0312H43.8594ZM44.4219 15.4688V16.6406H39.9219V15.4688H44.4219ZM46.5898 17.6602L47.7969 19.7637L49.0273 17.6602H50.5801L48.6582 20.7715L50.6562 24H49.1035L47.8145 21.8086L46.5254 24H44.9668L46.959 20.7715L45.043 17.6602H46.5898ZM52.9648 18.8789V26.4375H51.5527V17.6602H52.8535L52.9648 18.8789ZM57.0957 20.7715V20.8945C57.0957 21.3555 57.041 21.7832 56.9316 22.1777C56.8262 22.5684 56.668 22.9102 56.457 23.2031C56.25 23.4922 55.9941 23.7168 55.6895 23.877C55.3848 24.0371 55.0332 24.1172 54.6348 24.1172C54.2402 24.1172 53.8945 24.0449 53.5977 23.9004C53.3047 23.752 53.0566 23.543 52.8535 23.2734C52.6504 23.0039 52.4863 22.6875 52.3613 22.3242C52.2402 21.957 52.1543 21.5547 52.1035 21.1172V20.6426C52.1543 20.1777 52.2402 19.7559 52.3613 19.377C52.4863 18.998 52.6504 18.6719 52.8535 18.3984C53.0566 18.125 53.3047 17.9141 53.5977 17.7656C53.8906 17.6172 54.2324 17.543 54.623 17.543C55.0215 17.543 55.375 17.6211 55.6836 17.7773C55.9922 17.9297 56.252 18.1484 56.4629 18.4336C56.6738 18.7148 56.832 19.0547 56.9375 19.4531C57.043 19.8477 57.0957 20.2871 57.0957 20.7715ZM55.6836 20.8945V20.7715C55.6836 20.4785 55.6562 20.207 55.6016 19.957C55.5469 19.7031 55.4609 19.4805 55.3438 19.2891C55.2266 19.0977 55.0762 18.9492 54.8926 18.8438C54.7129 18.7344 54.4961 18.6797 54.2422 18.6797C53.9922 18.6797 53.7773 18.7227 53.5977 18.8086C53.418 18.8906 53.2676 19.0059 53.1465 19.1543C53.0254 19.3027 52.9316 19.4766 52.8652 19.6758C52.7988 19.8711 52.752 20.084 52.7246 20.3145V21.4512C52.7715 21.7324 52.8516 21.9902 52.9648 22.2246C53.0781 22.459 53.2383 22.6465 53.4453 22.7871C53.6562 22.9238 53.9258 22.9922 54.2539 22.9922C54.5078 22.9922 54.7246 22.9375 54.9043 22.8281C55.084 22.7188 55.2305 22.5684 55.3438 22.377C55.4609 22.1816 55.5469 21.957 55.6016 21.7031C55.6562 21.4492 55.6836 21.1797 55.6836 20.8945ZM61.0918 24.1172C60.623 24.1172 60.1992 24.041 59.8203 23.8887C59.4453 23.7324 59.125 23.5156 58.8594 23.2383C58.5977 22.9609 58.3965 22.6348 58.2559 22.2598C58.1152 21.8848 58.0449 21.4805 58.0449 21.0469V20.8125C58.0449 20.3164 58.1172 19.8672 58.2617 19.4648C58.4062 19.0625 58.6074 18.7188 58.8652 18.4336C59.123 18.1445 59.4277 17.9238 59.7793 17.7715C60.1309 17.6191 60.5117 17.543 60.9219 17.543C61.375 17.543 61.7715 17.6191 62.1113 17.7715C62.4512 17.9238 62.7324 18.1387 62.9551 18.416C63.1816 18.6895 63.3496 19.0156 63.459 19.3945C63.5723 19.7734 63.6289 20.1914 63.6289 20.6484V21.252H58.7305V20.2383H62.2344V20.127C62.2266 19.873 62.1758 19.6348 62.082 19.4121C61.9922 19.1895 61.8535 19.0098 61.666 18.873C61.4785 18.7363 61.2285 18.668 60.916 18.668C60.6816 18.668 60.4727 18.7188 60.2891 18.8203C60.1094 18.918 59.959 19.0605 59.8379 19.248C59.7168 19.4355 59.623 19.6621 59.5566 19.9277C59.4941 20.1895 59.4629 20.4844 59.4629 20.8125V21.0469C59.4629 21.3242 59.5 21.582 59.5742 21.8203C59.6523 22.0547 59.7656 22.2598 59.9141 22.4355C60.0625 22.6113 60.2422 22.75 60.4531 22.8516C60.6641 22.9492 60.9043 22.998 61.1738 22.998C61.5137 22.998 61.8164 22.9297 62.082 22.793C62.3477 22.6562 62.5781 22.4629 62.7734 22.2129L63.5176 22.9336C63.3809 23.1328 63.2031 23.3242 62.9844 23.5078C62.7656 23.6875 62.498 23.834 62.1816 23.9473C61.8691 24.0605 61.5059 24.1172 61.0918 24.1172ZM66.1309 19.0137V24H64.7188V17.6602H66.0488L66.1309 19.0137ZM65.8789 20.5957L65.4219 20.5898C65.4258 20.1406 65.4883 19.7285 65.6094 19.3535C65.7344 18.9785 65.9062 18.6562 66.125 18.3867C66.3477 18.1172 66.6133 17.9102 66.9219 17.7656C67.2305 17.6172 67.5742 17.543 67.9531 17.543C68.2578 17.543 68.5332 17.5859 68.7793 17.6719C69.0293 17.7539 69.2422 17.8887 69.418 18.0762C69.5977 18.2637 69.7344 18.5078 69.8281 18.8086C69.9219 19.1055 69.9688 19.4707 69.9688 19.9043V24H68.5508V19.8984C68.5508 19.5938 68.5059 19.3535 68.416 19.1777C68.3301 18.998 68.2031 18.8711 68.0352 18.7969C67.8711 18.7188 67.666 18.6797 67.4199 18.6797C67.1777 18.6797 66.9609 18.7305 66.7695 18.832C66.5781 18.9336 66.416 19.0723 66.2832 19.248C66.1543 19.4238 66.0547 19.627 65.9844 19.8574C65.9141 20.0879 65.8789 20.334 65.8789 20.5957ZM75.2773 22.6875V15H76.6953V24H75.4121L75.2773 22.6875ZM71.1523 20.9004V20.7773C71.1523 20.2969 71.209 19.8594 71.3223 19.4648C71.4355 19.0664 71.5996 18.7246 71.8145 18.4395C72.0293 18.1504 72.291 17.9297 72.5996 17.7773C72.9082 17.6211 73.2559 17.543 73.6426 17.543C74.0254 17.543 74.3613 17.6172 74.6504 17.7656C74.9395 17.9141 75.1855 18.127 75.3887 18.4043C75.5918 18.6777 75.7539 19.0059 75.875 19.3887C75.9961 19.7676 76.082 20.1895 76.1328 20.6543V21.0469C76.082 21.5 75.9961 21.9141 75.875 22.2891C75.7539 22.6641 75.5918 22.9883 75.3887 23.2617C75.1855 23.5352 74.9375 23.7461 74.6445 23.8945C74.3555 24.043 74.0176 24.1172 73.6309 24.1172C73.248 24.1172 72.9023 24.0371 72.5938 23.877C72.2891 23.7168 72.0293 23.4922 71.8145 23.2031C71.5996 22.9141 71.4355 22.5742 71.3223 22.1836C71.209 21.7891 71.1523 21.3613 71.1523 20.9004ZM72.5645 20.7773V20.9004C72.5645 21.1895 72.5898 21.459 72.6406 21.709C72.6953 21.959 72.7793 22.1797 72.8926 22.3711C73.0059 22.5586 73.1523 22.707 73.332 22.8164C73.5156 22.9219 73.7344 22.9746 73.9883 22.9746C74.3086 22.9746 74.5723 22.9043 74.7793 22.7637C74.9863 22.623 75.1484 22.4336 75.2656 22.1953C75.3867 21.9531 75.4688 21.6836 75.5117 21.3867V20.3262C75.4883 20.0957 75.4395 19.8809 75.3652 19.6816C75.2949 19.4824 75.1992 19.3086 75.0781 19.1602C74.957 19.0078 74.8066 18.8906 74.627 18.8086C74.4512 18.7227 74.2422 18.6797 74 18.6797C73.7422 18.6797 73.5234 18.7344 73.3438 18.8438C73.1641 18.9531 73.0156 19.1035 72.8984 19.2949C72.7852 19.4863 72.7012 19.709 72.6465 19.9629C72.5918 20.2168 72.5645 20.4883 72.5645 20.7773ZM79.6836 17.6602V24H78.2656V17.6602H79.6836ZM78.1719 15.9961C78.1719 15.7812 78.2422 15.6035 78.3828 15.4629C78.5273 15.3184 78.7266 15.2461 78.9805 15.2461C79.2305 15.2461 79.4277 15.3184 79.5723 15.4629C79.7168 15.6035 79.7891 15.7812 79.7891 15.9961C79.7891 16.207 79.7168 16.3828 79.5723 16.5234C79.4277 16.6641 79.2305 16.7344 78.9805 16.7344C78.7266 16.7344 78.5273 16.6641 78.3828 16.5234C78.2422 16.3828 78.1719 16.207 78.1719 15.9961ZM84.1367 17.6602V18.6914H80.5625V17.6602H84.1367ZM81.5938 16.1074H83.0059V22.248C83.0059 22.4434 83.0332 22.5938 83.0879 22.6992C83.1465 22.8008 83.2266 22.8691 83.3281 22.9043C83.4297 22.9395 83.5488 22.957 83.6855 22.957C83.7832 22.957 83.877 22.9512 83.9668 22.9395C84.0566 22.9277 84.1289 22.916 84.1836 22.9043L84.1895 23.9824C84.0723 24.0176 83.9355 24.0488 83.7793 24.0762C83.627 24.1035 83.4512 24.1172 83.252 24.1172C82.9277 24.1172 82.6406 24.0605 82.3906 23.9473C82.1406 23.8301 81.9453 23.6406 81.8047 23.3789C81.6641 23.1172 81.5938 22.7695 81.5938 22.3359V16.1074ZM89.041 22.5059V17.6602H90.459V24H89.123L89.041 22.5059ZM89.2402 21.1875L89.7148 21.1758C89.7148 21.6016 89.668 21.9941 89.5742 22.3535C89.4805 22.709 89.3359 23.0195 89.1406 23.2852C88.9453 23.5469 88.6953 23.752 88.3906 23.9004C88.0859 24.0449 87.7207 24.1172 87.2949 24.1172C86.9863 24.1172 86.7031 24.0723 86.4453 23.9824C86.1875 23.8926 85.9648 23.7539 85.7773 23.5664C85.5938 23.3789 85.4512 23.1348 85.3496 22.834C85.248 22.5332 85.1973 22.1738 85.1973 21.7559V17.6602H86.6094V21.7676C86.6094 21.998 86.6367 22.1914 86.6914 22.3477C86.7461 22.5 86.8203 22.623 86.9141 22.7168C87.0078 22.8105 87.1172 22.877 87.2422 22.916C87.3672 22.9551 87.5 22.9746 87.6406 22.9746C88.043 22.9746 88.3594 22.8965 88.5898 22.7402C88.8242 22.5801 88.9902 22.3652 89.0879 22.0957C89.1895 21.8262 89.2402 21.5234 89.2402 21.1875ZM93.3242 18.8672V24H91.9121V17.6602H93.2598L93.3242 18.8672ZM95.2637 17.6191L95.252 18.9316C95.166 18.916 95.0723 18.9043 94.9707 18.8965C94.873 18.8887 94.7754 18.8848 94.6777 18.8848C94.4355 18.8848 94.2227 18.9199 94.0391 18.9902C93.8555 19.0566 93.7012 19.1543 93.5762 19.2832C93.4551 19.4082 93.3613 19.5605 93.2949 19.7402C93.2285 19.9199 93.1895 20.1211 93.1777 20.3438L92.8555 20.3672C92.8555 19.9688 92.8945 19.5996 92.9727 19.2598C93.0508 18.9199 93.168 18.6211 93.3242 18.3633C93.4844 18.1055 93.6836 17.9043 93.9219 17.7598C94.1641 17.6152 94.4434 17.543 94.7598 17.543C94.8457 17.543 94.9375 17.5508 95.0352 17.5664C95.1367 17.582 95.2129 17.5996 95.2637 17.6191ZM98.8262 24.1172C98.3574 24.1172 97.9336 24.041 97.5547 23.8887C97.1797 23.7324 96.8594 23.5156 96.5938 23.2383C96.332 22.9609 96.1309 22.6348 95.9902 22.2598C95.8496 21.8848 95.7793 21.4805 95.7793 21.0469V20.8125C95.7793 20.3164 95.8516 19.8672 95.9961 19.4648C96.1406 19.0625 96.3418 18.7188 96.5996 18.4336C96.8574 18.1445 97.1621 17.9238 97.5137 17.7715C97.8652 17.6191 98.2461 17.543 98.6562 17.543C99.1094 17.543 99.5059 17.6191 99.8457 17.7715C100.186 17.9238 100.467 18.1387 100.689 18.416C100.916 18.6895 101.084 19.0156 101.193 19.3945C101.307 19.7734 101.363 20.1914 101.363 20.6484V21.252H96.4648V20.2383H99.9688V20.127C99.9609 19.873 99.9102 19.6348 99.8164 19.4121C99.7266 19.1895 99.5879 19.0098 99.4004 18.873C99.2129 18.7363 98.9629 18.668 98.6504 18.668C98.416 18.668 98.207 18.7188 98.0234 18.8203C97.8438 18.918 97.6934 19.0605 97.5723 19.248C97.4512 19.4355 97.3574 19.6621 97.291 19.9277C97.2285 20.1895 97.1973 20.4844 97.1973 20.8125V21.0469C97.1973 21.3242 97.2344 21.582 97.3086 21.8203C97.3867 22.0547 97.5 22.2598 97.6484 22.4355C97.7969 22.6113 97.9766 22.75 98.1875 22.8516C98.3984 22.9492 98.6387 22.998 98.9082 22.998C99.248 22.998 99.5508 22.9297 99.8164 22.793C100.082 22.6562 100.312 22.4629 100.508 22.2129L101.252 22.9336C101.115 23.1328 100.938 23.3242 100.719 23.5078C100.5 23.6875 100.232 23.834 99.916 23.9473C99.6035 24.0605 99.2402 24.1172 98.8262 24.1172Z" fill="black"/>
</g>
<defs>
<filter id="filter0_d_3305_16661" x="0" y="0" width="112" height="40" filterUnits="userSpaceOnUse" color-interpolation-filters="sRGB">
<feFlood flood-opacity="0" result="BackgroundImageFix"/>
<feColorMatrix in="SourceAlpha" type="matrix" values="0 0 0 0 0 0 0 0 0 0 0 0 0 0 0 0 0 0 127 0" result="hardAlpha"/>
<feOffset/>
<feGaussianBlur stdDeviation="2.5"/>
<feComposite in2="hardAlpha" operator="out"/>
<feColorMatrix type="matrix" values="0 0 0 0 0 0 0 0 0 0 0 0 0 0 0 0 0 0 0.16 0"/>
<feBlend mode="normal" in2="BackgroundImageFix" result="effect1_dropShadow_3305_16661"/>
<feBlend mode="normal" in="SourceGraphic" in2="effect1_dropShadow_3305_16661" result="shape"/>
</filter>
<clipPath id="clip0_3305_16661">
<rect width="18" height="18" fill="white" transform="translate(10 11)"/>
</clipPath>
</defs>
</svg>
