<svg width="175" height="44" viewBox="0 0 175 44" fill="none" xmlns="http://www.w3.org/2000/svg">
<path d="M5.47656 12.7578H2.51562V11.2031H5.47656C5.99219 11.2031 6.40885 11.1198 6.72656 10.9531C7.04427 10.7865 7.27604 10.5573 7.42188 10.2656C7.57292 9.96875 7.64844 9.63021 7.64844 9.25C7.64844 8.89062 7.57292 8.55469 7.42188 8.24219C7.27604 7.92448 7.04427 7.66927 6.72656 7.47656C6.40885 7.28385 5.99219 7.1875 5.47656 7.1875H3.11719V17H1.15625V5.625H5.47656C6.35677 5.625 7.10417 5.78125 7.71875 6.09375C8.33854 6.40104 8.8099 6.82812 9.13281 7.375C9.45573 7.91667 9.61719 8.53646 9.61719 9.23438C9.61719 9.96875 9.45573 10.599 9.13281 11.125C8.8099 11.651 8.33854 12.0547 7.71875 12.3359C7.10417 12.6172 6.35677 12.7578 5.47656 12.7578ZM13.2031 8.54688V17H11.3125V8.54688H13.2031ZM11.1875 6.32812C11.1875 6.04167 11.2812 5.80469 11.4688 5.61719C11.6615 5.42448 11.9271 5.32812 12.2656 5.32812C12.599 5.32812 12.862 5.42448 13.0547 5.61719C13.2474 5.80469 13.3438 6.04167 13.3438 6.32812C13.3438 6.60938 13.2474 6.84375 13.0547 7.03125C12.862 7.21875 12.599 7.3125 12.2656 7.3125C11.9271 7.3125 11.6615 7.21875 11.4688 7.03125C11.2812 6.84375 11.1875 6.60938 11.1875 6.32812ZM18.7188 15.6562C19.026 15.6562 19.3021 15.5964 19.5469 15.4766C19.7969 15.3516 19.9974 15.1797 20.1484 14.9609C20.3047 14.7422 20.3906 14.4896 20.4062 14.2031H22.1797C22.1693 14.75 22.0078 15.2474 21.6953 15.6953C21.3828 16.1432 20.9688 16.5 20.4531 16.7656C19.9375 17.026 19.3672 17.1562 18.7422 17.1562C18.0964 17.1562 17.5339 17.0469 17.0547 16.8281C16.5755 16.6042 16.1771 16.2969 15.8594 15.9062C15.5417 15.5156 15.3021 15.0651 15.1406 14.5547C14.9844 14.0443 14.9062 13.4974 14.9062 12.9141V12.6406C14.9062 12.0573 14.9844 11.5104 15.1406 11C15.3021 10.4844 15.5417 10.0312 15.8594 9.64062C16.1771 9.25 16.5755 8.94531 17.0547 8.72656C17.5339 8.5026 18.0938 8.39062 18.7344 8.39062C19.4115 8.39062 20.0052 8.52604 20.5156 8.79688C21.026 9.0625 21.4271 9.4349 21.7188 9.91406C22.0156 10.388 22.1693 10.9401 22.1797 11.5703H20.4062C20.3906 11.2578 20.3125 10.9766 20.1719 10.7266C20.0365 10.4714 19.8438 10.2682 19.5938 10.1172C19.349 9.96615 19.0547 9.89062 18.7109 9.89062C18.3307 9.89062 18.0156 9.96875 17.7656 10.125C17.5156 10.276 17.3203 10.4844 17.1797 10.75C17.0391 11.0104 16.9375 11.3047 16.875 11.6328C16.8177 11.9557 16.7891 12.2917 16.7891 12.6406V12.9141C16.7891 13.263 16.8177 13.6016 16.875 13.9297C16.9323 14.2578 17.0312 14.5521 17.1719 14.8125C17.3177 15.0677 17.5156 15.2734 17.7656 15.4297C18.0156 15.5807 18.3333 15.6562 18.7188 15.6562ZM25.4922 10.3516V17H23.6094V8.54688H25.3828L25.4922 10.3516ZM25.1562 12.4609L24.5469 12.4531C24.5521 11.8542 24.6354 11.3047 24.7969 10.8047C24.9635 10.3047 25.1927 9.875 25.4844 9.51562C25.7812 9.15625 26.1354 8.88021 26.5469 8.6875C26.9583 8.48958 27.4167 8.39062 27.9219 8.39062C28.3281 8.39062 28.6953 8.44792 29.0234 8.5625C29.3568 8.67188 29.6406 8.85156 29.875 9.10156C30.1146 9.35156 30.2969 9.67708 30.4219 10.0781C30.5469 10.474 30.6094 10.9609 30.6094 11.5391V17H28.7188V11.5312C28.7188 11.125 28.6589 10.8047 28.5391 10.5703C28.4245 10.3307 28.2552 10.1615 28.0312 10.0625C27.8125 9.95833 27.5391 9.90625 27.2109 9.90625C26.888 9.90625 26.599 9.97396 26.3438 10.1094C26.0885 10.2448 25.8724 10.4297 25.6953 10.6641C25.5234 10.8984 25.3906 11.1693 25.2969 11.4766C25.2031 11.7839 25.1562 12.112 25.1562 12.4609ZM34.5469 8.54688V17H32.6562V8.54688H34.5469ZM32.5312 6.32812C32.5312 6.04167 32.625 5.80469 32.8125 5.61719C33.0052 5.42448 33.2708 5.32812 33.6094 5.32812C33.9427 5.32812 34.2057 5.42448 34.3984 5.61719C34.5911 5.80469 34.6875 6.04167 34.6875 6.32812C34.6875 6.60938 34.5911 6.84375 34.3984 7.03125C34.2057 7.21875 33.9427 7.3125 33.6094 7.3125C33.2708 7.3125 33.0052 7.21875 32.8125 7.03125C32.625 6.84375 32.5312 6.60938 32.5312 6.32812ZM40.0625 15.6562C40.3698 15.6562 40.6458 15.5964 40.8906 15.4766C41.1406 15.3516 41.3411 15.1797 41.4922 14.9609C41.6484 14.7422 41.7344 14.4896 41.75 14.2031H43.5234C43.513 14.75 43.3516 15.2474 43.0391 15.6953C42.7266 16.1432 42.3125 16.5 41.7969 16.7656C41.2812 17.026 40.7109 17.1562 40.0859 17.1562C39.4401 17.1562 38.8776 17.0469 38.3984 16.8281C37.9193 16.6042 37.5208 16.2969 37.2031 15.9062C36.8854 15.5156 36.6458 15.0651 36.4844 14.5547C36.3281 14.0443 36.25 13.4974 36.25 12.9141V12.6406C36.25 12.0573 36.3281 11.5104 36.4844 11C36.6458 10.4844 36.8854 10.0312 37.2031 9.64062C37.5208 9.25 37.9193 8.94531 38.3984 8.72656C38.8776 8.5026 39.4375 8.39062 40.0781 8.39062C40.7552 8.39062 41.349 8.52604 41.8594 8.79688C42.3698 9.0625 42.7708 9.4349 43.0625 9.91406C43.3594 10.388 43.513 10.9401 43.5234 11.5703H41.75C41.7344 11.2578 41.6562 10.9766 41.5156 10.7266C41.3802 10.4714 41.1875 10.2682 40.9375 10.1172C40.6927 9.96615 40.3984 9.89062 40.0547 9.89062C39.6745 9.89062 39.3594 9.96875 39.1094 10.125C38.8594 10.276 38.6641 10.4844 38.5234 10.75C38.3828 11.0104 38.2812 11.3047 38.2188 11.6328C38.1615 11.9557 38.1328 12.2917 38.1328 12.6406V12.9141C38.1328 13.263 38.1615 13.6016 38.2188 13.9297C38.276 14.2578 38.375 14.5521 38.5156 14.8125C38.6615 15.0677 38.8594 15.2734 39.1094 15.4297C39.3594 15.5807 39.6771 15.6562 40.0625 15.6562ZM53.7188 15.3047V11.2734C53.7188 10.9714 53.6641 10.7109 53.5547 10.4922C53.4453 10.2734 53.2786 10.1042 53.0547 9.98438C52.8359 9.86458 52.5599 9.80469 52.2266 9.80469C51.9193 9.80469 51.6536 9.85677 51.4297 9.96094C51.2057 10.0651 51.0312 10.2057 50.9062 10.3828C50.7812 10.5599 50.7188 10.7604 50.7188 10.9844H48.8438C48.8438 10.651 48.9245 10.3281 49.0859 10.0156C49.2474 9.70312 49.4818 9.42448 49.7891 9.17969C50.0964 8.9349 50.4635 8.74219 50.8906 8.60156C51.3177 8.46094 51.7969 8.39062 52.3281 8.39062C52.9635 8.39062 53.526 8.4974 54.0156 8.71094C54.5104 8.92448 54.8984 9.2474 55.1797 9.67969C55.4661 10.1068 55.6094 10.6432 55.6094 11.2891V15.0469C55.6094 15.4323 55.6354 15.7786 55.6875 16.0859C55.7448 16.388 55.8255 16.651 55.9297 16.875V17H54C53.9115 16.7969 53.8411 16.5391 53.7891 16.2266C53.7422 15.9089 53.7188 15.6016 53.7188 15.3047ZM53.9922 11.8594L54.0078 13.0234H52.6562C52.3073 13.0234 52 13.0573 51.7344 13.125C51.4688 13.1875 51.2474 13.2812 51.0703 13.4062C50.8932 13.5312 50.7604 13.6823 50.6719 13.8594C50.5833 14.0365 50.5391 14.237 50.5391 14.4609C50.5391 14.6849 50.5911 14.8906 50.6953 15.0781C50.7995 15.2604 50.9505 15.4036 51.1484 15.5078C51.3516 15.612 51.5964 15.6641 51.8828 15.6641C52.2682 15.6641 52.6042 15.5859 52.8906 15.4297C53.1823 15.2682 53.4115 15.0729 53.5781 14.8438C53.7448 14.6094 53.8333 14.388 53.8438 14.1797L54.4531 15.0156C54.3906 15.2292 54.2839 15.4583 54.1328 15.7031C53.9818 15.9479 53.7839 16.1823 53.5391 16.4062C53.2995 16.625 53.0104 16.8047 52.6719 16.9453C52.3385 17.0859 51.9531 17.1562 51.5156 17.1562C50.9635 17.1562 50.4714 17.0469 50.0391 16.8281C49.6068 16.6042 49.2682 16.3047 49.0234 15.9297C48.7786 15.5495 48.6562 15.1198 48.6562 14.6406C48.6562 14.1927 48.7396 13.7969 48.9062 13.4531C49.0781 13.1042 49.3281 12.8125 49.6562 12.5781C49.9896 12.3438 50.3958 12.1667 50.875 12.0469C51.3542 11.9219 51.901 11.8594 52.5156 11.8594H53.9922ZM61.4531 8.54688V9.92188H56.6875V8.54688H61.4531ZM58.0625 6.47656H59.9453V14.6641C59.9453 14.9245 59.9818 15.125 60.0547 15.2656C60.1328 15.401 60.2396 15.4922 60.375 15.5391C60.5104 15.5859 60.6693 15.6094 60.8516 15.6094C60.9818 15.6094 61.1068 15.6016 61.2266 15.5859C61.3464 15.5703 61.4427 15.5547 61.5156 15.5391L61.5234 16.9766C61.3672 17.0234 61.1849 17.0651 60.9766 17.1016C60.7734 17.138 60.5391 17.1562 60.2734 17.1562C59.8411 17.1562 59.4583 17.0807 59.125 16.9297C58.7917 16.7734 58.5312 16.5208 58.3438 16.1719C58.1562 15.8229 58.0625 15.3594 58.0625 14.7812V6.47656ZM67.0781 5.625H71.1016C71.9661 5.625 72.7031 5.75521 73.3125 6.01562C73.9219 6.27604 74.388 6.66146 74.7109 7.17188C75.0391 7.67708 75.2031 8.30208 75.2031 9.04688C75.2031 9.61458 75.099 10.1146 74.8906 10.5469C74.6823 10.9792 74.388 11.3438 74.0078 11.6406C73.6276 11.9323 73.1745 12.1589 72.6484 12.3203L72.0547 12.6094H68.4375L68.4219 11.0547H71.1328C71.6016 11.0547 71.9922 10.9714 72.3047 10.8047C72.6172 10.638 72.8516 10.4115 73.0078 10.125C73.1693 9.83333 73.25 9.50521 73.25 9.14062C73.25 8.74479 73.1719 8.40104 73.0156 8.10938C72.8646 7.8125 72.6302 7.58594 72.3125 7.42969C71.9948 7.26823 71.5911 7.1875 71.1016 7.1875H69.0391V17H67.0781V5.625ZM73.5703 17L70.8984 11.8906L72.9531 11.8828L75.6641 16.8984V17H73.5703ZM81.7344 15.3047V11.2734C81.7344 10.9714 81.6797 10.7109 81.5703 10.4922C81.4609 10.2734 81.2943 10.1042 81.0703 9.98438C80.8516 9.86458 80.5755 9.80469 80.2422 9.80469C79.9349 9.80469 79.6693 9.85677 79.4453 9.96094C79.2214 10.0651 79.0469 10.2057 78.9219 10.3828C78.7969 10.5599 78.7344 10.7604 78.7344 10.9844H76.8594C76.8594 10.651 76.9401 10.3281 77.1016 10.0156C77.263 9.70312 77.4974 9.42448 77.8047 9.17969C78.112 8.9349 78.4792 8.74219 78.9062 8.60156C79.3333 8.46094 79.8125 8.39062 80.3438 8.39062C80.9792 8.39062 81.5417 8.4974 82.0312 8.71094C82.526 8.92448 82.9141 9.2474 83.1953 9.67969C83.4818 10.1068 83.625 10.6432 83.625 11.2891V15.0469C83.625 15.4323 83.651 15.7786 83.7031 16.0859C83.7604 16.388 83.8411 16.651 83.9453 16.875V17H82.0156C81.9271 16.7969 81.8568 16.5391 81.8047 16.2266C81.7578 15.9089 81.7344 15.6016 81.7344 15.3047ZM82.0078 11.8594L82.0234 13.0234H80.6719C80.3229 13.0234 80.0156 13.0573 79.75 13.125C79.4844 13.1875 79.263 13.2812 79.0859 13.4062C78.9089 13.5312 78.776 13.6823 78.6875 13.8594C78.599 14.0365 78.5547 14.237 78.5547 14.4609C78.5547 14.6849 78.6068 14.8906 78.7109 15.0781C78.8151 15.2604 78.9661 15.4036 79.1641 15.5078C79.3672 15.612 79.612 15.6641 79.8984 15.6641C80.2839 15.6641 80.6198 15.5859 80.9062 15.4297C81.1979 15.2682 81.4271 15.0729 81.5938 14.8438C81.7604 14.6094 81.849 14.388 81.8594 14.1797L82.4688 15.0156C82.4062 15.2292 82.2995 15.4583 82.1484 15.7031C81.9974 15.9479 81.7995 16.1823 81.5547 16.4062C81.3151 16.625 81.026 16.8047 80.6875 16.9453C80.3542 17.0859 79.9688 17.1562 79.5312 17.1562C78.9792 17.1562 78.487 17.0469 78.0547 16.8281C77.6224 16.6042 77.2839 16.3047 77.0391 15.9297C76.7943 15.5495 76.6719 15.1198 76.6719 14.6406C76.6719 14.1927 76.7552 13.7969 76.9219 13.4531C77.0938 13.1042 77.3438 12.8125 77.6719 12.5781C78.0052 12.3438 78.4115 12.1667 78.8906 12.0469C79.3698 11.9219 79.9167 11.8594 80.5312 11.8594H82.0078ZM85.6875 8.54688H87.5781V17.7344C87.5781 18.3125 87.4792 18.7995 87.2812 19.1953C87.0833 19.5964 86.7917 19.8984 86.4062 20.1016C86.0208 20.3099 85.5495 20.4141 84.9922 20.4141C84.8255 20.4141 84.6536 20.401 84.4766 20.375C84.2943 20.3542 84.1224 20.3229 83.9609 20.2812L83.9688 18.8125C84.0781 18.8333 84.1953 18.849 84.3203 18.8594C84.4401 18.875 84.5547 18.8828 84.6641 18.8828C84.888 18.8828 85.0755 18.8438 85.2266 18.7656C85.3776 18.6875 85.4922 18.5651 85.5703 18.3984C85.6484 18.2318 85.6875 18.0104 85.6875 17.7344V8.54688ZM85.5234 6.32812C85.5234 6.04167 85.6198 5.80469 85.8125 5.61719C86.0052 5.42448 86.2682 5.32812 86.6016 5.32812C86.9401 5.32812 87.2031 5.42448 87.3906 5.61719C87.5833 5.80469 87.6797 6.04167 87.6797 6.32812C87.6797 6.60938 87.5833 6.84375 87.3906 7.03125C87.2031 7.21875 86.9401 7.3125 86.6016 7.3125C86.2682 7.3125 86.0052 7.21875 85.8125 7.03125C85.6198 6.84375 85.5234 6.60938 85.5234 6.32812ZM94.3516 14.7109C94.3516 14.5234 94.3047 14.3542 94.2109 14.2031C94.1172 14.0469 93.9375 13.9062 93.6719 13.7812C93.4115 13.6562 93.026 13.5417 92.5156 13.4375C92.0677 13.3385 91.6562 13.2214 91.2812 13.0859C90.9115 12.9453 90.5938 12.776 90.3281 12.5781C90.0625 12.3802 89.8568 12.1458 89.7109 11.875C89.5651 11.6042 89.4922 11.2917 89.4922 10.9375C89.4922 10.5938 89.5677 10.2682 89.7188 9.96094C89.8698 9.65365 90.0859 9.38281 90.3672 9.14844C90.6484 8.91406 90.9896 8.72917 91.3906 8.59375C91.7969 8.45833 92.25 8.39062 92.75 8.39062C93.4583 8.39062 94.0651 8.51042 94.5703 8.75C95.0807 8.98438 95.4714 9.30469 95.7422 9.71094C96.013 10.112 96.1484 10.5651 96.1484 11.0703H94.2656C94.2656 10.8464 94.2083 10.638 94.0938 10.4453C93.9844 10.2474 93.8177 10.0885 93.5938 9.96875C93.3698 9.84375 93.0885 9.78125 92.75 9.78125C92.4271 9.78125 92.1589 9.83333 91.9453 9.9375C91.737 10.0365 91.5807 10.1667 91.4766 10.3281C91.3776 10.4896 91.3281 10.6667 91.3281 10.8594C91.3281 11 91.3542 11.1276 91.4062 11.2422C91.4635 11.3516 91.5573 11.4531 91.6875 11.5469C91.8177 11.6354 91.9948 11.7188 92.2188 11.7969C92.4479 11.875 92.7344 11.9505 93.0781 12.0234C93.724 12.1589 94.2786 12.3333 94.7422 12.5469C95.2109 12.7552 95.5703 13.026 95.8203 13.3594C96.0703 13.6875 96.1953 14.1042 96.1953 14.6094C96.1953 14.9844 96.1146 15.3281 95.9531 15.6406C95.7969 15.9479 95.5677 16.2161 95.2656 16.4453C94.9635 16.6693 94.6016 16.8438 94.1797 16.9688C93.763 17.0938 93.2943 17.1562 92.7734 17.1562C92.0078 17.1562 91.3594 17.0208 90.8281 16.75C90.2969 16.474 89.8932 16.1224 89.6172 15.6953C89.3464 15.263 89.2109 14.8151 89.2109 14.3516H91.0312C91.0521 14.7005 91.1484 14.9792 91.3203 15.1875C91.4974 15.3906 91.7161 15.5391 91.9766 15.6328C92.2422 15.7214 92.5156 15.7656 92.7969 15.7656C93.1354 15.7656 93.4193 15.7214 93.6484 15.6328C93.8776 15.5391 94.0521 15.4141 94.1719 15.2578C94.2917 15.0964 94.3516 14.9141 94.3516 14.7109ZM99.7031 5V17H97.8281V5H99.7031ZM99.375 12.4609L98.7656 12.4531C98.7708 11.8698 98.8516 11.3307 99.0078 10.8359C99.1693 10.3411 99.3932 9.91146 99.6797 9.54688C99.9714 9.17708 100.32 8.89323 100.727 8.69531C101.133 8.49219 101.583 8.39062 102.078 8.39062C102.495 8.39062 102.87 8.44792 103.203 8.5625C103.542 8.67708 103.833 8.86198 104.078 9.11719C104.323 9.36719 104.508 9.69531 104.633 10.1016C104.763 10.5026 104.828 10.9922 104.828 11.5703V17H102.938V11.5547C102.938 11.1484 102.878 10.8255 102.758 10.5859C102.643 10.3464 102.474 10.1745 102.25 10.0703C102.026 9.96094 101.753 9.90625 101.43 9.90625C101.091 9.90625 100.792 9.97396 100.531 10.1094C100.276 10.2448 100.062 10.4297 99.8906 10.6641C99.7188 10.8984 99.5885 11.1693 99.5 11.4766C99.4167 11.7839 99.375 12.112 99.375 12.4609ZM111.5 15.3047V11.2734C111.5 10.9714 111.445 10.7109 111.336 10.4922C111.227 10.2734 111.06 10.1042 110.836 9.98438C110.617 9.86458 110.341 9.80469 110.008 9.80469C109.701 9.80469 109.435 9.85677 109.211 9.96094C108.987 10.0651 108.812 10.2057 108.688 10.3828C108.562 10.5599 108.5 10.7604 108.5 10.9844H106.625C106.625 10.651 106.706 10.3281 106.867 10.0156C107.029 9.70312 107.263 9.42448 107.57 9.17969C107.878 8.9349 108.245 8.74219 108.672 8.60156C109.099 8.46094 109.578 8.39062 110.109 8.39062C110.745 8.39062 111.307 8.4974 111.797 8.71094C112.292 8.92448 112.68 9.2474 112.961 9.67969C113.247 10.1068 113.391 10.6432 113.391 11.2891V15.0469C113.391 15.4323 113.417 15.7786 113.469 16.0859C113.526 16.388 113.607 16.651 113.711 16.875V17H111.781C111.693 16.7969 111.622 16.5391 111.57 16.2266C111.523 15.9089 111.5 15.6016 111.5 15.3047ZM111.773 11.8594L111.789 13.0234H110.438C110.089 13.0234 109.781 13.0573 109.516 13.125C109.25 13.1875 109.029 13.2812 108.852 13.4062C108.674 13.5312 108.542 13.6823 108.453 13.8594C108.365 14.0365 108.32 14.237 108.32 14.4609C108.32 14.6849 108.372 14.8906 108.477 15.0781C108.581 15.2604 108.732 15.4036 108.93 15.5078C109.133 15.612 109.378 15.6641 109.664 15.6641C110.049 15.6641 110.385 15.5859 110.672 15.4297C110.964 15.2682 111.193 15.0729 111.359 14.8438C111.526 14.6094 111.615 14.388 111.625 14.1797L112.234 15.0156C112.172 15.2292 112.065 15.4583 111.914 15.7031C111.763 15.9479 111.565 16.1823 111.32 16.4062C111.081 16.625 110.792 16.8047 110.453 16.9453C110.12 17.0859 109.734 17.1562 109.297 17.1562C108.745 17.1562 108.253 17.0469 107.82 16.8281C107.388 16.6042 107.049 16.3047 106.805 15.9297C106.56 15.5495 106.438 15.1198 106.438 14.6406C106.438 14.1927 106.521 13.7969 106.688 13.4531C106.859 13.1042 107.109 12.8125 107.438 12.5781C107.771 12.3438 108.177 12.1667 108.656 12.0469C109.135 11.9219 109.682 11.8594 110.297 11.8594H111.773ZM117.219 5V17H115.344V5H117.219ZM116.891 12.4609L116.281 12.4531C116.286 11.8698 116.367 11.3307 116.523 10.8359C116.685 10.3411 116.909 9.91146 117.195 9.54688C117.487 9.17708 117.836 8.89323 118.242 8.69531C118.648 8.49219 119.099 8.39062 119.594 8.39062C120.01 8.39062 120.385 8.44792 120.719 8.5625C121.057 8.67708 121.349 8.86198 121.594 9.11719C121.839 9.36719 122.023 9.69531 122.148 10.1016C122.279 10.5026 122.344 10.9922 122.344 11.5703V17H120.453V11.5547C120.453 11.1484 120.393 10.8255 120.273 10.5859C120.159 10.3464 119.99 10.1745 119.766 10.0703C119.542 9.96094 119.268 9.90625 118.945 9.90625C118.607 9.90625 118.307 9.97396 118.047 10.1094C117.792 10.2448 117.578 10.4297 117.406 10.6641C117.234 10.8984 117.104 11.1693 117.016 11.4766C116.932 11.7839 116.891 12.112 116.891 12.4609ZM126.266 8.54688V17H124.375V8.54688H126.266ZM124.25 6.32812C124.25 6.04167 124.344 5.80469 124.531 5.61719C124.724 5.42448 124.99 5.32812 125.328 5.32812C125.661 5.32812 125.924 5.42448 126.117 5.61719C126.31 5.80469 126.406 6.04167 126.406 6.32812C126.406 6.60938 126.31 6.84375 126.117 7.03125C125.924 7.21875 125.661 7.3125 125.328 7.3125C124.99 7.3125 124.724 7.21875 124.531 7.03125C124.344 6.84375 124.25 6.60938 124.25 6.32812ZM141.57 11V11.625C141.57 12.4844 141.458 13.2552 141.234 13.9375C141.01 14.6198 140.69 15.2005 140.273 15.6797C139.862 16.1589 139.367 16.526 138.789 16.7812C138.211 17.0312 137.57 17.1562 136.867 17.1562C136.169 17.1562 135.531 17.0312 134.953 16.7812C134.38 16.526 133.883 16.1589 133.461 15.6797C133.039 15.2005 132.711 14.6198 132.477 13.9375C132.247 13.2552 132.133 12.4844 132.133 11.625V11C132.133 10.1406 132.247 9.3724 132.477 8.69531C132.706 8.01302 133.029 7.43229 133.445 6.95312C133.867 6.46875 134.365 6.10156 134.938 5.85156C135.516 5.59635 136.154 5.46875 136.852 5.46875C137.555 5.46875 138.195 5.59635 138.773 5.85156C139.352 6.10156 139.849 6.46875 140.266 6.95312C140.682 7.43229 141.003 8.01302 141.227 8.69531C141.456 9.3724 141.57 10.1406 141.57 11ZM139.609 11.625V10.9844C139.609 10.349 139.547 9.78906 139.422 9.30469C139.302 8.8151 139.122 8.40625 138.883 8.07812C138.648 7.74479 138.359 7.49479 138.016 7.32812C137.672 7.15625 137.284 7.07031 136.852 7.07031C136.419 7.07031 136.034 7.15625 135.695 7.32812C135.357 7.49479 135.068 7.74479 134.828 8.07812C134.594 8.40625 134.414 8.8151 134.289 9.30469C134.164 9.78906 134.102 10.349 134.102 10.9844V11.625C134.102 12.2604 134.164 12.8229 134.289 13.3125C134.414 13.8021 134.596 14.2161 134.836 14.5547C135.081 14.888 135.372 15.1406 135.711 15.3125C136.049 15.4792 136.435 15.5625 136.867 15.5625C137.305 15.5625 137.693 15.4792 138.031 15.3125C138.37 15.1406 138.656 14.888 138.891 14.5547C139.125 14.2161 139.302 13.8021 139.422 13.3125C139.547 12.8229 139.609 12.2604 139.609 11.625ZM145.891 17H144.008V7.73438C144.008 7.10417 144.125 6.57552 144.359 6.14844C144.599 5.71615 144.94 5.39062 145.383 5.17188C145.826 4.94792 146.349 4.83594 146.953 4.83594C147.141 4.83594 147.326 4.84896 147.508 4.875C147.69 4.89583 147.867 4.92969 148.039 4.97656L147.992 6.42969C147.888 6.40365 147.773 6.38542 147.648 6.375C147.529 6.36458 147.398 6.35938 147.258 6.35938C146.971 6.35938 146.724 6.41406 146.516 6.52344C146.312 6.6276 146.156 6.78125 146.047 6.98438C145.943 7.1875 145.891 7.4375 145.891 7.73438V17ZM147.633 8.54688V9.92188H142.711V8.54688H147.633ZM151.547 17H149.664V7.73438C149.664 7.10417 149.781 6.57552 150.016 6.14844C150.255 5.71615 150.596 5.39062 151.039 5.17188C151.482 4.94792 152.005 4.83594 152.609 4.83594C152.797 4.83594 152.982 4.84896 153.164 4.875C153.346 4.89583 153.523 4.92969 153.695 4.97656L153.648 6.42969C153.544 6.40365 153.43 6.38542 153.305 6.375C153.185 6.36458 153.055 6.35938 152.914 6.35938C152.628 6.35938 152.38 6.41406 152.172 6.52344C151.969 6.6276 151.812 6.78125 151.703 6.98438C151.599 7.1875 151.547 7.4375 151.547 7.73438V17ZM153.289 8.54688V9.92188H148.367V8.54688H153.289ZM156.672 8.54688V17H154.781V8.54688H156.672ZM154.656 6.32812C154.656 6.04167 154.75 5.80469 154.938 5.61719C155.13 5.42448 155.396 5.32812 155.734 5.32812C156.068 5.32812 156.331 5.42448 156.523 5.61719C156.716 5.80469 156.812 6.04167 156.812 6.32812C156.812 6.60938 156.716 6.84375 156.523 7.03125C156.331 7.21875 156.068 7.3125 155.734 7.3125C155.396 7.3125 155.13 7.21875 154.938 7.03125C154.75 6.84375 154.656 6.60938 154.656 6.32812ZM162.188 15.6562C162.495 15.6562 162.771 15.5964 163.016 15.4766C163.266 15.3516 163.466 15.1797 163.617 14.9609C163.773 14.7422 163.859 14.4896 163.875 14.2031H165.648C165.638 14.75 165.477 15.2474 165.164 15.6953C164.852 16.1432 164.438 16.5 163.922 16.7656C163.406 17.026 162.836 17.1562 162.211 17.1562C161.565 17.1562 161.003 17.0469 160.523 16.8281C160.044 16.6042 159.646 16.2969 159.328 15.9062C159.01 15.5156 158.771 15.0651 158.609 14.5547C158.453 14.0443 158.375 13.4974 158.375 12.9141V12.6406C158.375 12.0573 158.453 11.5104 158.609 11C158.771 10.4844 159.01 10.0312 159.328 9.64062C159.646 9.25 160.044 8.94531 160.523 8.72656C161.003 8.5026 161.562 8.39062 162.203 8.39062C162.88 8.39062 163.474 8.52604 163.984 8.79688C164.495 9.0625 164.896 9.4349 165.188 9.91406C165.484 10.388 165.638 10.9401 165.648 11.5703H163.875C163.859 11.2578 163.781 10.9766 163.641 10.7266C163.505 10.4714 163.312 10.2682 163.062 10.1172C162.818 9.96615 162.523 9.89062 162.18 9.89062C161.799 9.89062 161.484 9.96875 161.234 10.125C160.984 10.276 160.789 10.4844 160.648 10.75C160.508 11.0104 160.406 11.3047 160.344 11.6328C160.286 11.9557 160.258 12.2917 160.258 12.6406V12.9141C160.258 13.263 160.286 13.6016 160.344 13.9297C160.401 14.2578 160.5 14.5521 160.641 14.8125C160.786 15.0677 160.984 15.2734 161.234 15.4297C161.484 15.5807 161.802 15.6562 162.188 15.6562ZM170.82 17.1562C170.195 17.1562 169.63 17.0547 169.125 16.8516C168.625 16.6432 168.198 16.3542 167.844 15.9844C167.495 15.6146 167.227 15.1797 167.039 14.6797C166.852 14.1797 166.758 13.6406 166.758 13.0625V12.75C166.758 12.0885 166.854 11.4896 167.047 10.9531C167.24 10.4167 167.508 9.95833 167.852 9.57812C168.195 9.19271 168.602 8.89844 169.07 8.69531C169.539 8.49219 170.047 8.39062 170.594 8.39062C171.198 8.39062 171.727 8.49219 172.18 8.69531C172.633 8.89844 173.008 9.1849 173.305 9.55469C173.607 9.91927 173.831 10.3542 173.977 10.8594C174.128 11.3646 174.203 11.9219 174.203 12.5312V13.3359H167.672V11.9844H172.344V11.8359C172.333 11.4974 172.266 11.1797 172.141 10.8828C172.021 10.5859 171.836 10.3464 171.586 10.1641C171.336 9.98177 171.003 9.89062 170.586 9.89062C170.273 9.89062 169.995 9.95833 169.75 10.0938C169.51 10.224 169.31 10.4141 169.148 10.6641C168.987 10.9141 168.862 11.2161 168.773 11.5703C168.69 11.9193 168.648 12.3125 168.648 12.75V13.0625C168.648 13.4323 168.698 13.776 168.797 14.0938C168.901 14.4062 169.052 14.6797 169.25 14.9141C169.448 15.1484 169.688 15.3333 169.969 15.4688C170.25 15.599 170.57 15.6641 170.93 15.6641C171.383 15.6641 171.786 15.5729 172.141 15.3906C172.495 15.2083 172.802 14.9505 173.062 14.6172L174.055 15.5781C173.872 15.8438 173.635 16.099 173.344 16.3438C173.052 16.5833 172.695 16.7786 172.273 16.9297C171.857 17.0807 171.372 17.1562 170.82 17.1562Z" fill="black"/>
<path fill-rule="evenodd" clip-rule="evenodd" d="M11.6805 30.9303V31.9526C12.8287 32.311 13.6654 33.3504 13.6654 34.5919V37.8832C13.6654 39.4202 12.3911 40.6663 10.8202 40.6663H5.1779C3.60627 40.6663 2.33203 39.4202 2.33203 37.8832V34.5919C2.33203 33.3504 3.16933 32.311 4.31689 31.9526V30.9303C4.32366 28.9429 5.96981 27.333 7.98854 27.333C10.0344 27.333 11.6805 28.9429 11.6805 30.9303ZM8.00209 28.4924C9.37726 28.4924 10.495 29.5855 10.495 30.9303V31.8088H5.50238V30.9171C5.50916 29.5789 6.62691 28.4924 8.00209 28.4924ZM8.59145 36.9696C8.59145 37.2943 8.32725 37.5526 7.99531 37.5526C7.67015 37.5526 7.40595 37.2943 7.40595 36.9696V35.4989C7.40595 35.1809 7.67015 34.9225 7.99531 34.9225C8.32725 34.9225 8.59145 35.1809 8.59145 35.4989V36.9696Z" fill="#6D6B6B"/>
<path d="M25.43 33.07C25.43 33.65 25.23 34.1333 24.83 34.52C24.4367 34.9 23.8333 35.09 23.02 35.09H21.68V38H20.77V31.03H23.02C23.8067 31.03 24.4033 31.22 24.81 31.6C25.2233 31.98 25.43 32.47 25.43 33.07ZM23.02 34.34C23.5267 34.34 23.9 34.23 24.14 34.01C24.38 33.79 24.5 33.4767 24.5 33.07C24.5 32.21 24.0067 31.78 23.02 31.78H21.68V34.34H23.02ZM27.471 33.41C27.631 33.0967 27.8577 32.8533 28.151 32.68C28.451 32.5067 28.8143 32.42 29.241 32.42V33.36H29.001C27.981 33.36 27.471 33.9133 27.471 35.02V38H26.561V32.52H27.471V33.41ZM30.7615 31.63C30.5882 31.63 30.4415 31.57 30.3215 31.45C30.2015 31.33 30.1415 31.1833 30.1415 31.01C30.1415 30.8367 30.2015 30.69 30.3215 30.57C30.4415 30.45 30.5882 30.39 30.7615 30.39C30.9282 30.39 31.0682 30.45 31.1815 30.57C31.3015 30.69 31.3615 30.8367 31.3615 31.01C31.3615 31.1833 31.3015 31.33 31.1815 31.45C31.0682 31.57 30.9282 31.63 30.7615 31.63ZM31.2015 32.52V38H30.2915V32.52H31.2015ZM34.7924 37.16L36.4924 32.52H37.4624L35.3124 38H34.2524L32.1024 32.52H33.0824L34.7924 37.16ZM38.0179 35.24C38.0179 34.68 38.1312 34.19 38.3579 33.77C38.5846 33.3433 38.8946 33.0133 39.2879 32.78C39.6879 32.5467 40.1312 32.43 40.6179 32.43C41.0979 32.43 41.5146 32.5333 41.8679 32.74C42.2212 32.9467 42.4846 33.2067 42.6579 33.52V32.52H43.5779V38H42.6579V36.98C42.4779 37.3 42.2079 37.5667 41.8479 37.78C41.4946 37.9867 41.0812 38.09 40.6079 38.09C40.1212 38.09 39.6812 37.97 39.2879 37.73C38.8946 37.49 38.5846 37.1533 38.3579 36.72C38.1312 36.2867 38.0179 35.7933 38.0179 35.24ZM42.6579 35.25C42.6579 34.8367 42.5746 34.4767 42.4079 34.17C42.2412 33.8633 42.0146 33.63 41.7279 33.47C41.4479 33.3033 41.1379 33.22 40.7979 33.22C40.4579 33.22 40.1479 33.3 39.8679 33.46C39.5879 33.62 39.3646 33.8533 39.1979 34.16C39.0312 34.4667 38.9479 34.8267 38.9479 35.24C38.9479 35.66 39.0312 36.0267 39.1979 36.34C39.3646 36.6467 39.5879 36.8833 39.8679 37.05C40.1479 37.21 40.4579 37.29 40.7979 37.29C41.1379 37.29 41.4479 37.21 41.7279 37.05C42.0146 36.8833 42.2412 36.6467 42.4079 36.34C42.5746 36.0267 42.6579 35.6633 42.6579 35.25ZM46.2257 33.27V36.5C46.2257 36.7667 46.2824 36.9567 46.3957 37.07C46.509 37.1767 46.7057 37.23 46.9857 37.23H47.6557V38H46.8357C46.329 38 45.949 37.8833 45.6957 37.65C45.4424 37.4167 45.3157 37.0333 45.3157 36.5V33.27H44.6057V32.52H45.3157V31.14H46.2257V32.52H47.6557V33.27H46.2257ZM53.7583 35.05C53.7583 35.2233 53.7483 35.4067 53.7283 35.6H49.3483C49.3816 36.14 49.5649 36.5633 49.8983 36.87C50.2383 37.17 50.6483 37.32 51.1283 37.32C51.5216 37.32 51.8483 37.23 52.1083 37.05C52.3749 36.8633 52.5616 36.6167 52.6683 36.31H53.6483C53.5016 36.8367 53.2083 37.2667 52.7683 37.6C52.3283 37.9267 51.7816 38.09 51.1283 38.09C50.6083 38.09 50.1416 37.9733 49.7283 37.74C49.3216 37.5067 49.0016 37.1767 48.7683 36.75C48.5349 36.3167 48.4183 35.8167 48.4183 35.25C48.4183 34.6833 48.5316 34.1867 48.7583 33.76C48.9849 33.3333 49.3016 33.0067 49.7083 32.78C50.1216 32.5467 50.5949 32.43 51.1283 32.43C51.6483 32.43 52.1083 32.5433 52.5083 32.77C52.9083 32.9967 53.2149 33.31 53.4283 33.71C53.6483 34.1033 53.7583 34.55 53.7583 35.05ZM52.8183 34.86C52.8183 34.5133 52.7416 34.2167 52.5883 33.97C52.4349 33.7167 52.2249 33.5267 51.9583 33.4C51.6983 33.2667 51.4083 33.2 51.0883 33.2C50.6283 33.2 50.2349 33.3467 49.9083 33.64C49.5883 33.9333 49.4049 34.34 49.3583 34.86H52.8183ZM59.8855 32.43C60.3588 32.43 60.7721 32.5333 61.1255 32.74C61.4855 32.9467 61.7521 33.2067 61.9255 33.52V32.52H62.8455V38.12C62.8455 38.62 62.7388 39.0633 62.5255 39.45C62.3121 39.8433 62.0055 40.15 61.6055 40.37C61.2121 40.59 60.7521 40.7 60.2255 40.7C59.5055 40.7 58.9055 40.53 58.4255 40.19C57.9455 39.85 57.6621 39.3867 57.5755 38.8H58.4755C58.5755 39.1333 58.7821 39.4 59.0955 39.6C59.4088 39.8067 59.7855 39.91 60.2255 39.91C60.7255 39.91 61.1321 39.7533 61.4455 39.44C61.7655 39.1267 61.9255 38.6867 61.9255 38.12V36.97C61.7455 37.29 61.4788 37.5567 61.1255 37.77C60.7721 37.9833 60.3588 38.09 59.8855 38.09C59.3988 38.09 58.9555 37.97 58.5555 37.73C58.1621 37.49 57.8521 37.1533 57.6255 36.72C57.3988 36.2867 57.2855 35.7933 57.2855 35.24C57.2855 34.68 57.3988 34.19 57.6255 33.77C57.8521 33.3433 58.1621 33.0133 58.5555 32.78C58.9555 32.5467 59.3988 32.43 59.8855 32.43ZM61.9255 35.25C61.9255 34.8367 61.8421 34.4767 61.6755 34.17C61.5088 33.8633 61.2821 33.63 60.9955 33.47C60.7155 33.3033 60.4055 33.22 60.0655 33.22C59.7255 33.22 59.4155 33.3 59.1355 33.46C58.8555 33.62 58.6321 33.8533 58.4655 34.16C58.2988 34.4667 58.2155 34.8267 58.2155 35.24C58.2155 35.66 58.2988 36.0267 58.4655 36.34C58.6321 36.6467 58.8555 36.8833 59.1355 37.05C59.4155 37.21 59.7255 37.29 60.0655 37.29C60.4055 37.29 60.7155 37.21 60.9955 37.05C61.2821 36.8833 61.5088 36.6467 61.6755 36.34C61.8421 36.0267 61.9255 35.6633 61.9255 35.25ZM65.2933 33.41C65.4533 33.0967 65.6799 32.8533 65.9733 32.68C66.2733 32.5067 66.6366 32.42 67.0633 32.42V33.36H66.8233C65.8033 33.36 65.2933 33.9133 65.2933 35.02V38H64.3833V32.52H65.2933V33.41ZM70.5038 38.09C69.9904 38.09 69.5238 37.9733 69.1038 37.74C68.6904 37.5067 68.3638 37.1767 68.1238 36.75C67.8904 36.3167 67.7738 35.8167 67.7738 35.25C67.7738 34.69 67.8938 34.1967 68.1338 33.77C68.3804 33.3367 68.7138 33.0067 69.1338 32.78C69.5538 32.5467 70.0238 32.43 70.5438 32.43C71.0638 32.43 71.5338 32.5467 71.9538 32.78C72.3738 33.0067 72.7038 33.3333 72.9438 33.76C73.1904 34.1867 73.3138 34.6833 73.3138 35.25C73.3138 35.8167 73.1871 36.3167 72.9338 36.75C72.6871 37.1767 72.3504 37.5067 71.9238 37.74C71.4971 37.9733 71.0238 38.09 70.5038 38.09ZM70.5038 37.29C70.8304 37.29 71.1371 37.2133 71.4238 37.06C71.7104 36.9067 71.9404 36.6767 72.1138 36.37C72.2938 36.0633 72.3838 35.69 72.3838 35.25C72.3838 34.81 72.2971 34.4367 72.1238 34.13C71.9504 33.8233 71.7238 33.5967 71.4438 33.45C71.1638 33.2967 70.8604 33.22 70.5338 33.22C70.2004 33.22 69.8938 33.2967 69.6138 33.45C69.3404 33.5967 69.1204 33.8233 68.9538 34.13C68.7871 34.4367 68.7038 34.81 68.7038 35.25C68.7038 35.6967 68.7838 36.0733 68.9438 36.38C69.1104 36.6867 69.3304 36.9167 69.6038 37.07C69.8771 37.2167 70.1771 37.29 70.5038 37.29ZM79.3702 32.52V38H78.4602V37.19C78.2869 37.47 78.0436 37.69 77.7302 37.85C77.4236 38.0033 77.0836 38.08 76.7102 38.08C76.2836 38.08 75.9002 37.9933 75.5602 37.82C75.2202 37.64 74.9502 37.3733 74.7502 37.02C74.5569 36.6667 74.4602 36.2367 74.4602 35.73V32.52H75.3602V35.61C75.3602 36.15 75.4969 36.5667 75.7702 36.86C76.0436 37.1467 76.4169 37.29 76.8902 37.29C77.3769 37.29 77.7602 37.14 78.0402 36.84C78.3202 36.54 78.4602 36.1033 78.4602 35.53V32.52H79.3702ZM81.8167 33.53C81.9967 33.2167 82.2634 32.9567 82.6167 32.75C82.9767 32.5367 83.3934 32.43 83.8667 32.43C84.3534 32.43 84.7934 32.5467 85.1867 32.78C85.5867 33.0133 85.9001 33.3433 86.1267 33.77C86.3534 34.19 86.4667 34.68 86.4667 35.24C86.4667 35.7933 86.3534 36.2867 86.1267 36.72C85.9001 37.1533 85.5867 37.49 85.1867 37.73C84.7934 37.97 84.3534 38.09 83.8667 38.09C83.4001 38.09 82.9867 37.9867 82.6267 37.78C82.2734 37.5667 82.0034 37.3033 81.8167 36.99V40.6H80.9067V32.52H81.8167V33.53ZM85.5367 35.24C85.5367 34.8267 85.4534 34.4667 85.2867 34.16C85.1201 33.8533 84.8934 33.62 84.6067 33.46C84.3267 33.3 84.0167 33.22 83.6767 33.22C83.3434 33.22 83.0334 33.3033 82.7467 33.47C82.4667 33.63 82.2401 33.8667 82.0667 34.18C81.9001 34.4867 81.8167 34.8433 81.8167 35.25C81.8167 35.6633 81.9001 36.0267 82.0667 36.34C82.2401 36.6467 82.4667 36.8833 82.7467 37.05C83.0334 37.21 83.3434 37.29 83.6767 37.29C84.0167 37.29 84.3267 37.21 84.6067 37.05C84.8934 36.8833 85.1201 36.6467 85.2867 36.34C85.4534 36.0267 85.5367 35.66 85.5367 35.24Z" fill="#6D6B6B"/>
<circle cx="99" cy="34" r="2" fill="#6D6B6B"/>
<path d="M107.51 37.27C108.357 36.59 109.02 36.0333 109.5 35.6C109.98 35.16 110.383 34.7033 110.71 34.23C111.043 33.75 111.21 33.28 111.21 32.82C111.21 32.3867 111.103 32.0467 110.89 31.8C110.683 31.5467 110.347 31.42 109.88 31.42C109.427 31.42 109.073 31.5633 108.82 31.85C108.573 32.13 108.44 32.5067 108.42 32.98H107.54C107.567 32.2333 107.793 31.6567 108.22 31.25C108.647 30.8433 109.197 30.64 109.87 30.64C110.557 30.64 111.1 30.83 111.5 31.21C111.907 31.59 112.11 32.1133 112.11 32.78C112.11 33.3333 111.943 33.8733 111.61 34.4C111.283 34.92 110.91 35.38 110.49 35.78C110.07 36.1733 109.533 36.6333 108.88 37.16H112.32V37.92H107.51V37.27ZM117.822 31.48L115.042 38H114.122L116.942 31.57H113.082V30.79H117.822V31.48ZM128.717 31.08V38H127.807V32.84L125.507 38H124.867L122.557 32.83V38H121.647V31.08H122.627L125.187 36.8L127.747 31.08H128.717ZM135.26 35.05C135.26 35.2233 135.25 35.4067 135.23 35.6H130.85C130.884 36.14 131.067 36.5633 131.4 36.87C131.74 37.17 132.15 37.32 132.63 37.32C133.024 37.32 133.35 37.23 133.61 37.05C133.877 36.8633 134.064 36.6167 134.17 36.31H135.15C135.004 36.8367 134.71 37.2667 134.27 37.6C133.83 37.9267 133.284 38.09 132.63 38.09C132.11 38.09 131.644 37.9733 131.23 37.74C130.824 37.5067 130.504 37.1767 130.27 36.75C130.037 36.3167 129.92 35.8167 129.92 35.25C129.92 34.6833 130.034 34.1867 130.26 33.76C130.487 33.3333 130.804 33.0067 131.21 32.78C131.624 32.5467 132.097 32.43 132.63 32.43C133.15 32.43 133.61 32.5433 134.01 32.77C134.41 32.9967 134.717 33.31 134.93 33.71C135.15 34.1033 135.26 34.55 135.26 35.05ZM134.32 34.86C134.32 34.5133 134.244 34.2167 134.09 33.97C133.937 33.7167 133.727 33.5267 133.46 33.4C133.2 33.2667 132.91 33.2 132.59 33.2C132.13 33.2 131.737 33.3467 131.41 33.64C131.09 33.9333 130.907 34.34 130.86 34.86H134.32ZM143.051 32.42C143.478 32.42 143.858 32.51 144.191 32.69C144.525 32.8633 144.788 33.1267 144.981 33.48C145.175 33.8333 145.271 34.2633 145.271 34.77V38H144.371V34.9C144.371 34.3533 144.235 33.9367 143.961 33.65C143.695 33.3567 143.331 33.21 142.871 33.21C142.398 33.21 142.021 33.3633 141.741 33.67C141.461 33.97 141.321 34.4067 141.321 34.98V38H140.421V34.9C140.421 34.3533 140.285 33.9367 140.011 33.65C139.745 33.3567 139.381 33.21 138.921 33.21C138.448 33.21 138.071 33.3633 137.791 33.67C137.511 33.97 137.371 34.4067 137.371 34.98V38H136.461V32.52H137.371V33.31C137.551 33.0233 137.791 32.8033 138.091 32.65C138.398 32.4967 138.735 32.42 139.101 32.42C139.561 32.42 139.968 32.5233 140.321 32.73C140.675 32.9367 140.938 33.24 141.111 33.64C141.265 33.2533 141.518 32.9533 141.871 32.74C142.225 32.5267 142.618 32.42 143.051 32.42ZM147.674 33.54C147.861 33.2133 148.134 32.9467 148.494 32.74C148.854 32.5333 149.264 32.43 149.724 32.43C150.217 32.43 150.661 32.5467 151.054 32.78C151.447 33.0133 151.757 33.3433 151.984 33.77C152.211 34.19 152.324 34.68 152.324 35.24C152.324 35.7933 152.211 36.2867 151.984 36.72C151.757 37.1533 151.444 37.49 151.044 37.73C150.651 37.97 150.211 38.09 149.724 38.09C149.251 38.09 148.834 37.9867 148.474 37.78C148.121 37.5733 147.854 37.31 147.674 36.99V38H146.764V30.6H147.674V33.54ZM151.394 35.24C151.394 34.8267 151.311 34.4667 151.144 34.16C150.977 33.8533 150.751 33.62 150.464 33.46C150.184 33.3 149.874 33.22 149.534 33.22C149.201 33.22 148.891 33.3033 148.604 33.47C148.324 33.63 148.097 33.8667 147.924 34.18C147.757 34.4867 147.674 34.8433 147.674 35.25C147.674 35.6633 147.757 36.0267 147.924 36.34C148.097 36.6467 148.324 36.8833 148.604 37.05C148.891 37.21 149.201 37.29 149.534 37.29C149.874 37.29 150.184 37.21 150.464 37.05C150.751 36.8833 150.977 36.6467 151.144 36.34C151.311 36.0267 151.394 35.66 151.394 35.24ZM158.522 35.05C158.522 35.2233 158.512 35.4067 158.492 35.6H154.112C154.145 36.14 154.329 36.5633 154.662 36.87C155.002 37.17 155.412 37.32 155.892 37.32C156.285 37.32 156.612 37.23 156.872 37.05C157.139 36.8633 157.325 36.6167 157.432 36.31H158.412C158.265 36.8367 157.972 37.2667 157.532 37.6C157.092 37.9267 156.545 38.09 155.892 38.09C155.372 38.09 154.905 37.9733 154.492 37.74C154.085 37.5067 153.765 37.1767 153.532 36.75C153.299 36.3167 153.182 35.8167 153.182 35.25C153.182 34.6833 153.295 34.1867 153.522 33.76C153.749 33.3333 154.065 33.0067 154.472 32.78C154.885 32.5467 155.359 32.43 155.892 32.43C156.412 32.43 156.872 32.5433 157.272 32.77C157.672 32.9967 157.979 33.31 158.192 33.71C158.412 34.1033 158.522 34.55 158.522 35.05ZM157.582 34.86C157.582 34.5133 157.505 34.2167 157.352 33.97C157.199 33.7167 156.989 33.5267 156.722 33.4C156.462 33.2667 156.172 33.2 155.852 33.2C155.392 33.2 154.999 33.3467 154.672 33.64C154.352 33.9333 154.169 34.34 154.122 34.86H157.582ZM160.633 33.41C160.793 33.0967 161.02 32.8533 161.313 32.68C161.613 32.5067 161.976 32.42 162.403 32.42V33.36H162.163C161.143 33.36 160.633 33.9133 160.633 35.02V38H159.723V32.52H160.633V33.41ZM165.394 38.09C164.974 38.09 164.597 38.02 164.264 37.88C163.93 37.7333 163.667 37.5333 163.474 37.28C163.28 37.02 163.174 36.7233 163.154 36.39H164.094C164.12 36.6633 164.247 36.8867 164.474 37.06C164.707 37.2333 165.01 37.32 165.384 37.32C165.73 37.32 166.004 37.2433 166.204 37.09C166.404 36.9367 166.504 36.7433 166.504 36.51C166.504 36.27 166.397 36.0933 166.184 35.98C165.97 35.86 165.64 35.7433 165.194 35.63C164.787 35.5233 164.454 35.4167 164.194 35.31C163.94 35.1967 163.72 35.0333 163.534 34.82C163.354 34.6 163.264 34.3133 163.264 33.96C163.264 33.68 163.347 33.4233 163.514 33.19C163.68 32.9567 163.917 32.7733 164.224 32.64C164.53 32.5 164.88 32.43 165.274 32.43C165.88 32.43 166.37 32.5833 166.744 32.89C167.117 33.1967 167.317 33.6167 167.344 34.15H166.434C166.414 33.8633 166.297 33.6333 166.084 33.46C165.877 33.2867 165.597 33.2 165.244 33.2C164.917 33.2 164.657 33.27 164.464 33.41C164.27 33.55 164.174 33.7333 164.174 33.96C164.174 34.14 164.23 34.29 164.344 34.41C164.464 34.5233 164.61 34.6167 164.784 34.69C164.964 34.7567 165.21 34.8333 165.524 34.92C165.917 35.0267 166.237 35.1333 166.484 35.24C166.73 35.34 166.94 35.4933 167.114 35.7C167.294 35.9067 167.387 36.1767 167.394 36.51C167.394 36.81 167.31 37.08 167.144 37.32C166.977 37.56 166.74 37.75 166.434 37.89C166.134 38.0233 165.787 38.09 165.394 38.09Z" fill="#6D6B6B"/>
</svg>
