<svg width="110" height="30" viewBox="0 0 110 30" fill="none" xmlns="http://www.w3.org/2000/svg">
<rect width="110" height="30" rx="5" fill="#3F51B5"/>
<path d="M42.4375 10.4688V19H40.9668V10.4688H42.4375ZM45.5254 14.0137V19H44.1133V12.6602H45.4434L45.5254 14.0137ZM45.2734 15.5957L44.8164 15.5898C44.8203 15.1406 44.8828 14.7285 45.0039 14.3535C45.1289 13.9785 45.3008 13.6562 45.5195 13.3867C45.7422 13.1172 46.0078 12.9102 46.3164 12.7656C46.625 12.6172 46.9688 12.543 47.3477 12.543C47.6523 12.543 47.9277 12.5859 48.1738 12.6719C48.4238 12.7539 48.6367 12.8887 48.8125 13.0762C48.9922 13.2637 49.1289 13.5078 49.2227 13.8086C49.3164 14.1055 49.3633 14.4707 49.3633 14.9043V19H47.9453V14.8984C47.9453 14.5938 47.9004 14.3535 47.8105 14.1777C47.7246 13.998 47.5977 13.8711 47.4297 13.7969C47.2656 13.7188 47.0605 13.6797 46.8145 13.6797C46.5723 13.6797 46.3555 13.7305 46.1641 13.832C45.9727 13.9336 45.8105 14.0723 45.6777 14.248C45.5488 14.4238 45.4492 14.627 45.3789 14.8574C45.3086 15.0879 45.2734 15.334 45.2734 15.5957ZM52.8672 17.8809L54.4199 12.6602H55.8848L53.6816 19H52.7676L52.8672 17.8809ZM51.6777 12.6602L53.2598 17.9043L53.3359 19H52.4219L50.207 12.6602H51.6777ZM58.2695 12.6602V19H56.8516V12.6602H58.2695ZM56.7578 10.9961C56.7578 10.7812 56.8281 10.6035 56.9688 10.4629C57.1133 10.3184 57.3125 10.2461 57.5664 10.2461C57.8164 10.2461 58.0137 10.3184 58.1582 10.4629C58.3027 10.6035 58.375 10.7812 58.375 10.9961C58.375 11.207 58.3027 11.3828 58.1582 11.5234C58.0137 11.6641 57.8164 11.7344 57.5664 11.7344C57.3125 11.7344 57.1133 11.6641 56.9688 11.5234C56.8281 11.3828 56.7578 11.207 56.7578 10.9961ZM62.7227 12.6602V13.6914H59.1484V12.6602H62.7227ZM60.1797 11.1074H61.5918V17.248C61.5918 17.4434 61.6191 17.5938 61.6738 17.6992C61.7324 17.8008 61.8125 17.8691 61.9141 17.9043C62.0156 17.9395 62.1348 17.957 62.2715 17.957C62.3691 17.957 62.4629 17.9512 62.5527 17.9395C62.6426 17.9277 62.7148 17.916 62.7695 17.9043L62.7754 18.9824C62.6582 19.0176 62.5215 19.0488 62.3652 19.0762C62.2129 19.1035 62.0371 19.1172 61.8379 19.1172C61.5137 19.1172 61.2266 19.0605 60.9766 18.9473C60.7266 18.8301 60.5312 18.6406 60.3906 18.3789C60.25 18.1172 60.1797 17.7695 60.1797 17.3359V11.1074ZM66.6074 19.1172C66.1387 19.1172 65.7148 19.041 65.3359 18.8887C64.9609 18.7324 64.6406 18.5156 64.375 18.2383C64.1133 17.9609 63.9121 17.6348 63.7715 17.2598C63.6309 16.8848 63.5605 16.4805 63.5605 16.0469V15.8125C63.5605 15.3164 63.6328 14.8672 63.7773 14.4648C63.9219 14.0625 64.123 13.7188 64.3809 13.4336C64.6387 13.1445 64.9434 12.9238 65.2949 12.7715C65.6465 12.6191 66.0273 12.543 66.4375 12.543C66.8906 12.543 67.2871 12.6191 67.627 12.7715C67.9668 12.9238 68.248 13.1387 68.4707 13.416C68.6973 13.6895 68.8652 14.0156 68.9746 14.3945C69.0879 14.7734 69.1445 15.1914 69.1445 15.6484V16.252H64.2461V15.2383H67.75V15.127C67.7422 14.873 67.6914 14.6348 67.5977 14.4121C67.5078 14.1895 67.3691 14.0098 67.1816 13.873C66.9941 13.7363 66.7441 13.668 66.4316 13.668C66.1973 13.668 65.9883 13.7188 65.8047 13.8203C65.625 13.918 65.4746 14.0605 65.3535 14.248C65.2324 14.4355 65.1387 14.6621 65.0723 14.9277C65.0098 15.1895 64.9785 15.4844 64.9785 15.8125V16.0469C64.9785 16.3242 65.0156 16.582 65.0898 16.8203C65.168 17.0547 65.2812 17.2598 65.4297 17.4355C65.5781 17.6113 65.7578 17.75 65.9688 17.8516C66.1797 17.9492 66.4199 17.998 66.6895 17.998C67.0293 17.998 67.332 17.9297 67.5977 17.793C67.8633 17.6562 68.0938 17.4629 68.2891 17.2129L69.0332 17.9336C68.8965 18.1328 68.7188 18.3242 68.5 18.5078C68.2812 18.6875 68.0137 18.834 67.6973 18.9473C67.3848 19.0605 67.0215 19.1172 66.6074 19.1172Z" fill="white"/>
</svg>
