<svg width="40" height="20" viewBox="0 0 40 20" fill="none" xmlns="http://www.w3.org/2000/svg">
<g clip-path="url(#clip0_3305_16634)">
<path d="M17.9941 11.8488C17.9941 11.1728 17.6309 10.5801 17.0895 10.2554C17.2969 9.95588 17.4186 9.59247 17.4186 9.20129C17.4186 8.17778 16.5859 7.34507 15.5624 7.34507H11.6439C11.764 6.80085 11.9283 5.98421 12.0426 5.12931C12.3403 2.90459 12.1369 1.67078 11.4026 1.24648C10.9447 0.982002 10.4512 0.928354 10.0127 1.09528C9.67395 1.2243 9.2165 1.54151 8.95582 2.32005L7.92595 5.01657C7.24293 6.70347 4.71678 8.50045 4.11888 8.9083H0.540289C0.246207 8.9083 0.0078125 9.14673 0.0078125 9.44077V17.2616C0.0078125 17.5556 0.246242 17.794 0.540289 17.794H4.17977C6.20857 18.5942 8.34283 19 10.5253 19H14.7949C15.8184 19 16.6511 18.1673 16.6511 17.1438C16.6511 16.7854 16.549 16.4503 16.3723 16.1663C16.9911 15.8649 17.4185 15.2295 17.4185 14.4963C17.4185 14.1051 17.2968 13.7417 17.0894 13.4421C17.6309 13.1175 17.9941 12.5247 17.9941 11.8488ZM3.7484 16.7291H1.07277V9.97332H3.7484V16.7291ZM16.1379 12.64H15.5623C15.2683 12.64 15.0299 12.8785 15.0299 13.1725C15.0299 13.4666 15.2683 13.705 15.5623 13.705C15.9986 13.705 16.3536 14.06 16.3536 14.4963C16.3536 14.9326 15.9986 15.2875 15.5623 15.2875H14.7949C14.5008 15.2875 14.2624 15.526 14.2624 15.82C14.2624 16.1141 14.5009 16.3525 14.7949 16.3525C15.2312 16.3525 15.5862 16.7075 15.5862 17.1438C15.5862 17.58 15.2312 17.935 14.7949 17.935H10.5253C8.56417 17.935 6.6445 17.5861 4.81343 16.8973V9.72417C5.61755 9.1694 8.14965 7.31083 8.91556 5.41025C8.91676 5.40723 8.91795 5.4042 8.91911 5.40118L9.95492 2.68912C9.95784 2.68153 9.96058 2.67383 9.96308 2.66613C10.0635 2.36203 10.2157 2.15759 10.3918 2.09055C10.5625 2.02548 10.746 2.09709 10.8698 2.16863C10.8743 2.17127 11.3185 2.50255 10.9882 4.97994C10.8006 6.38692 10.4598 7.73264 10.4564 7.74607C10.4158 7.90536 10.4512 8.07449 10.5519 8.20429C10.6528 8.33409 10.808 8.41006 10.9724 8.41006H15.5624C15.9987 8.41006 16.3537 8.76503 16.3537 9.20132C16.3537 9.63761 15.9987 9.99259 15.5624 9.99259C15.2684 9.99259 15.03 10.231 15.03 10.5251C15.03 10.8191 15.2684 11.0575 15.5624 11.0575H16.138C16.5743 11.0575 16.9293 11.4125 16.9293 11.8488C16.9292 12.2851 16.5742 12.64 16.1379 12.64Z" fill="#3A3A3A"/>
</g>
<path d="M25.512 12.264H27.392V13H24.6V7.44H25.512V12.264ZM28.6187 8.008C28.4534 8.008 28.3147 7.952 28.2027 7.84C28.0907 7.728 28.0347 7.58933 28.0347 7.424C28.0347 7.25867 28.0907 7.12 28.2027 7.008C28.3147 6.896 28.4534 6.84 28.6187 6.84C28.7787 6.84 28.9147 6.896 29.0267 7.008C29.1387 7.12 29.1947 7.25867 29.1947 7.424C29.1947 7.58933 29.1387 7.728 29.0267 7.84C28.9147 7.952 28.7787 8.008 28.6187 8.008ZM29.0667 8.592V13H28.1547V8.592H29.0667ZM32.0081 10.8L34.0401 13H32.8081L31.1761 11.104V13H30.2641V7.08H31.1761V10.52L32.7761 8.592H34.0401L32.0081 10.8ZM38.7338 10.688C38.7338 10.8533 38.7231 11.0027 38.7018 11.136H35.3338C35.3604 11.488 35.4911 11.7707 35.7258 11.984C35.9604 12.1973 36.2484 12.304 36.5898 12.304C37.0804 12.304 37.4271 12.0987 37.6298 11.688H38.6137C38.4804 12.0933 38.2378 12.4267 37.8858 12.688C37.5391 12.944 37.1071 13.072 36.5898 13.072C36.1684 13.072 35.7898 12.9787 35.4538 12.792C35.1231 12.6 34.8618 12.3333 34.6698 11.992C34.4831 11.6453 34.3898 11.2453 34.3898 10.792C34.3898 10.3387 34.4804 9.94133 34.6618 9.6C34.8484 9.25333 35.1071 8.98667 35.4378 8.8C35.7738 8.61333 36.1578 8.52 36.5898 8.52C37.0058 8.52 37.3764 8.61067 37.7018 8.792C38.0271 8.97333 38.2804 9.22933 38.4618 9.56C38.6431 9.88533 38.7338 10.2613 38.7338 10.688ZM37.7818 10.4C37.7764 10.064 37.6564 9.79467 37.4218 9.592C37.1871 9.38933 36.8964 9.288 36.5498 9.288C36.2351 9.288 35.9658 9.38933 35.7418 9.592C35.5178 9.78933 35.3844 10.0587 35.3418 10.4H37.7818Z" fill="#3A3A3A"/>
<defs>
<clipPath id="clip0_3305_16634">
<rect width="18" height="18" fill="white" transform="translate(0 1)"/>
</clipPath>
</defs>
</svg>
