<svg width="16" height="16" viewBox="0 0 16 16" fill="none" xmlns="http://www.w3.org/2000/svg">
<path fill-rule="evenodd" clip-rule="evenodd" d="M11.6805 4.93034V5.95257C12.8287 6.31098 13.6654 7.35043 13.6654 8.59194V11.8832C13.6654 13.4202 12.3911 14.6663 10.8202 14.6663H5.1779C3.60627 14.6663 2.33203 13.4202 2.33203 11.8832V8.59194C2.33203 7.35043 3.16933 6.31098 4.31689 5.95257V4.93034C4.32366 2.94287 5.96981 1.33301 7.98854 1.33301C10.0344 1.33301 11.6805 2.94287 11.6805 4.93034ZM8.00209 2.49237C9.37726 2.49237 10.495 3.58548 10.495 4.93034V5.80881H5.50238V4.91709C5.50916 3.57886 6.62691 2.49237 8.00209 2.49237ZM8.59145 10.9696C8.59145 11.2943 8.32725 11.5526 7.99531 11.5526C7.67015 11.5526 7.40595 11.2943 7.40595 10.9696V9.4989C7.40595 9.1809 7.67015 8.92253 7.99531 8.92253C8.32725 8.92253 8.59145 9.1809 8.59145 9.4989V10.9696Z" fill="#6D6B6B"/>
</svg>
