<svg width="22" height="10" viewBox="0 0 22 10" fill="none" xmlns="http://www.w3.org/2000/svg">
<path d="M0.36 3V2.168H2.024V8H1.104V3H0.36ZM5.67688 3.52C6.01288 3.52 6.31154 3.592 6.57288 3.736C6.83954 3.88 7.04754 4.09333 7.19688 4.376C7.35154 4.65867 7.42888 5 7.42888 5.4V8H6.52488V5.536C6.52488 5.14133 6.42621 4.84 6.22888 4.632C6.03154 4.41867 5.76221 4.312 5.42088 4.312C5.07954 4.312 4.80754 4.41867 4.60488 4.632C4.40754 4.84 4.30888 5.14133 4.30888 5.536V8H3.39688V2.08H4.30888V4.104C4.46354 3.91733 4.65821 3.77333 4.89288 3.672C5.13288 3.57067 5.39421 3.52 5.67688 3.52Z" fill="#6D6B6B"/>
<g clip-path="url(#clip0_3305_16654)">
<path d="M21.4145 9.64298C21.1146 8.70784 20.5255 7.89212 19.7322 7.31341C18.9389 6.73469 17.9822 6.42285 17.0002 6.42285C16.0182 6.42285 15.0616 6.73469 14.2682 7.31341C13.4749 7.89212 12.8858 8.70784 12.5859 9.64298H21.4145Z" stroke="#6D6B6B" stroke-linecap="round" stroke-linejoin="round"/>
<path d="M16.9995 6.42861C18.669 6.42861 20.0224 5.07521 20.0224 3.40571C20.0224 1.73621 18.669 0.382812 16.9995 0.382812C15.33 0.382812 13.9766 1.73621 13.9766 3.40571C13.9766 5.07521 15.33 6.42861 16.9995 6.42861Z" stroke="#6D6B6B" stroke-linecap="round" stroke-linejoin="round"/>
<path d="M17.9859 4.5752C17.9859 4.5752 17.735 5.06872 16.9988 5.06872C16.2625 5.06872 16.0117 4.5752 16.0117 4.5752" stroke="#6D6B6B" stroke-linecap="round" stroke-linejoin="round"/>
<path d="M19.9693 2.83017C19.9625 2.83021 19.9558 2.83023 19.9491 2.83023C19.0704 2.83023 18.2815 2.44581 17.7414 1.83598C17.2013 2.44583 16.4124 2.83026 15.5338 2.83026C15.0235 2.83026 14.5435 2.70062 14.125 2.47249C14.5182 1.2597 15.6573 0.382812 17.0011 0.382812C18.4738 0.382812 19.7005 1.43593 19.9693 2.83017Z" stroke="#6D6B6B" stroke-linecap="round" stroke-linejoin="round"/>
</g>
<defs>
<clipPath id="clip0_3305_16654">
<rect width="10" height="10" fill="white" transform="translate(12)"/>
</clipPath>
</defs>
</svg>
