<svg width="59" height="30" viewBox="0 0 59 30" fill="none" xmlns="http://www.w3.org/2000/svg">
<rect width="59" height="30" rx="10" fill="#707070"/>
<path d="M23.4141 14.1728C24.4603 14.0258 25.2658 13.1288 25.2681 12.042C25.2681 10.971 24.4873 10.083 23.4636 9.91504" stroke="#E5E6EB" stroke-width="1.5" stroke-linecap="round" stroke-linejoin="round"/>
<path d="M24.7969 16.6875C25.8101 16.839 26.5174 17.1938 26.5174 17.925C26.5174 18.4283 26.1844 18.7553 25.6459 18.9608" stroke="#E5E6EB" stroke-width="1.5" stroke-linecap="round" stroke-linejoin="round"/>
<path fill-rule="evenodd" clip-rule="evenodd" d="M18.9146 16.998C16.5041 16.998 14.4453 17.3633 14.4453 18.822C14.4453 20.28 16.4913 20.6558 18.9146 20.6558C21.3251 20.6558 23.3831 20.2943 23.3831 18.8348C23.3831 17.3753 21.3378 16.998 18.9146 16.998Z" stroke="#E5E6EB" stroke-width="1.5" stroke-linecap="round" stroke-linejoin="round"/>
<path fill-rule="evenodd" clip-rule="evenodd" d="M18.9151 14.916C20.4968 14.916 21.7793 13.6343 21.7793 12.0518C21.7793 10.47 20.4968 9.1875 18.9151 9.1875C17.3333 9.1875 16.0508 10.47 16.0508 12.0518C16.0448 13.6283 17.3176 14.9108 18.8941 14.916H18.9151Z" stroke="#E5E6EB" stroke-width="1.5" stroke-linecap="round" stroke-linejoin="round"/>
<path d="M14.4126 14.1728C13.3656 14.0258 12.5608 13.1288 12.5586 12.042C12.5586 10.971 13.3393 10.083 14.3631 9.91504" stroke="#E5E6EB" stroke-width="1.5" stroke-linecap="round" stroke-linejoin="round"/>
<path d="M13.033 16.6875C12.0197 16.839 11.3125 17.1938 11.3125 17.925C11.3125 18.4283 11.6455 18.7553 12.184 18.9608" stroke="#E5E6EB" stroke-width="1.5" stroke-linecap="round" stroke-linejoin="round"/>
<path fill-rule="evenodd" clip-rule="evenodd" d="M33.0625 15C33.0625 18.831 36.1682 21.9375 40 21.9375C43.831 21.9375 46.9375 18.831 46.9375 15C46.9375 11.169 43.831 8.0625 40 8.0625C36.1682 8.0625 33.0625 11.169 33.0625 15Z" stroke="#E5E6EB" stroke-width="1.5" stroke-linecap="round" stroke-linejoin="round"/>
<path d="M37.3984 13.918L40.0017 16.5325L42.6049 13.918" stroke="#E5E6EB" stroke-width="1.5" stroke-linecap="round" stroke-linejoin="round"/>
</svg>
