<svg width="80" height="40" viewBox="0 0 80 40" fill="none" xmlns="http://www.w3.org/2000/svg">
<g filter="url(#filter0_d_3305_16658)">
<rect x="5" y="5" width="70" height="30" rx="15" fill="#F1F3FA" shape-rendering="crispEdges"/>
<path fill-rule="evenodd" clip-rule="evenodd" d="M15.7285 13.5462C13.7958 13.5462 12.547 14.8715 12.547 16.916V23.0765C12.547 23.6503 12.6535 24.1625 12.8358 24.6058C12.8436 24.5964 13.0153 24.3871 13.2393 24.1142C13.6769 23.5809 14.314 22.8045 14.3185 22.8005C14.8375 22.208 15.8117 21.3245 17.0905 21.8593C17.3707 21.9754 17.6198 22.1346 17.8491 22.2811C17.8714 22.2954 17.8935 22.3095 17.9155 22.3235C18.3453 22.6108 18.598 22.7458 18.8605 22.7233C18.9693 22.7083 19.0712 22.676 19.168 22.616C19.533 22.391 20.4792 21.0503 20.7625 20.6488C20.8041 20.5899 20.8314 20.5512 20.8405 20.5393C21.658 19.4743 22.918 19.1893 23.968 19.8193C24.109 19.9033 25.1192 20.609 25.4537 20.8925V16.916C25.4537 14.8715 24.205 13.5462 22.2655 13.5462H15.7285ZM22.2655 12.5C24.7983 12.5 26.5 14.2715 26.5 16.916V23.0765C26.5 23.143 26.493 23.2054 26.486 23.2677C26.4811 23.3115 26.4762 23.3553 26.4738 23.4005C26.4721 23.4278 26.4714 23.4551 26.4706 23.4825C26.4695 23.5189 26.4685 23.5553 26.4655 23.5917C26.464 23.606 26.4612 23.6197 26.4584 23.6334C26.4556 23.6471 26.4528 23.6607 26.4513 23.675C26.4265 23.9105 26.3883 24.1355 26.335 24.3537C26.3224 24.4083 26.3079 24.4609 26.2932 24.5139L26.29 24.5255C26.23 24.737 26.1595 24.9387 26.0748 25.1315C26.0599 25.1639 26.0442 25.1955 26.0286 25.2271C26.0181 25.2481 26.0077 25.2692 25.9975 25.2905C25.906 25.4742 25.807 25.6505 25.6923 25.814C25.671 25.8443 25.6484 25.8726 25.6258 25.9011C25.6108 25.9198 25.5959 25.9386 25.5813 25.958C25.462 26.1125 25.3375 26.2602 25.1965 26.3945C25.1683 26.4213 25.1379 26.4458 25.1075 26.4703C25.0885 26.4856 25.0695 26.5009 25.051 26.5167C24.9063 26.6412 24.7585 26.7605 24.5958 26.8625C24.5602 26.8848 24.5225 26.9035 24.4849 26.9222C24.4606 26.9342 24.4363 26.9463 24.4127 26.9592C24.247 27.0507 24.0798 27.14 23.8975 27.209C23.8537 27.2257 23.807 27.2377 23.7602 27.2498C23.727 27.2584 23.6937 27.267 23.6613 27.2772C23.645 27.2823 23.6288 27.2873 23.6126 27.2924C23.4498 27.343 23.2876 27.3935 23.1123 27.4235C23.0107 27.4413 22.9029 27.4481 22.7951 27.455C22.7484 27.4579 22.7017 27.4609 22.6555 27.4647C22.6058 27.4685 22.5571 27.4745 22.5084 27.4805C22.429 27.4902 22.3496 27.5 22.2655 27.5H15.7285C15.4465 27.5 15.1773 27.4715 14.917 27.4287L14.8893 27.4242C13.8745 27.2495 13.0323 26.7597 12.442 26.021C12.4379 26.021 12.4363 26.0182 12.4341 26.0145C12.4328 26.0122 12.4312 26.0094 12.4285 26.0067C11.8353 25.2597 11.5 24.2555 11.5 23.0765V16.916C11.5 14.2715 13.2032 12.5 15.7285 12.5H22.2655ZM18.2505 17.3859C18.2505 18.4021 17.4002 19.2497 16.3791 19.2497C15.4816 19.2497 14.7163 18.5939 14.5448 17.7449C14.5164 17.6175 14.5005 17.4865 14.5005 17.3512C14.5005 16.3277 15.3318 15.4997 16.3595 15.4997C16.8827 15.4997 17.3566 15.7197 17.6959 16.0708C18.0368 16.4095 18.2505 16.8764 18.2505 17.3859Z" fill="#45BD63"/>
<path d="M42.1074 20.8184H39.8867V19.6523H42.1074C42.4941 19.6523 42.8066 19.5898 43.0449 19.4648C43.2832 19.3398 43.457 19.168 43.5664 18.9492C43.6797 18.7266 43.7363 18.4727 43.7363 18.1875C43.7363 17.918 43.6797 17.666 43.5664 17.4316C43.457 17.1934 43.2832 17.002 43.0449 16.8574C42.8066 16.7129 42.4941 16.6406 42.1074 16.6406H40.3379V24H38.8672V15.4688H42.1074C42.7676 15.4688 43.3281 15.5859 43.7891 15.8203C44.2539 16.0508 44.6074 16.3711 44.8496 16.7812C45.0918 17.1875 45.2129 17.6523 45.2129 18.1758C45.2129 18.7266 45.0918 19.1992 44.8496 19.5938C44.6074 19.9883 44.2539 20.291 43.7891 20.502C43.3281 20.7129 42.7676 20.8184 42.1074 20.8184ZM47.7852 15V24H46.3789V15H47.7852ZM47.5391 20.5957L47.082 20.5898C47.0859 20.1523 47.1465 19.748 47.2637 19.377C47.3848 19.0059 47.5527 18.6836 47.7676 18.4102C47.9863 18.1328 48.248 17.9199 48.5527 17.7715C48.8574 17.6191 49.1953 17.543 49.5664 17.543C49.8789 17.543 50.1602 17.5859 50.4102 17.6719C50.6641 17.7578 50.8828 17.8965 51.0664 18.0879C51.25 18.2754 51.3887 18.5215 51.4824 18.8262C51.5801 19.127 51.6289 19.4941 51.6289 19.9277V24H50.2109V19.916C50.2109 19.6113 50.166 19.3691 50.0762 19.1895C49.9902 19.0098 49.8633 18.8809 49.6953 18.8027C49.5273 18.7207 49.3223 18.6797 49.0801 18.6797C48.8262 18.6797 48.6016 18.7305 48.4062 18.832C48.2148 18.9336 48.0547 19.0723 47.9258 19.248C47.7969 19.4238 47.6992 19.627 47.6328 19.8574C47.5703 20.0879 47.5391 20.334 47.5391 20.5957ZM52.7891 20.9004V20.7656C52.7891 20.3086 52.8555 19.8848 52.9883 19.4941C53.1211 19.0996 53.3125 18.7578 53.5625 18.4688C53.8164 18.1758 54.125 17.9492 54.4883 17.7891C54.8555 17.625 55.2695 17.543 55.7305 17.543C56.1953 17.543 56.6094 17.625 56.9727 17.7891C57.3398 17.9492 57.6504 18.1758 57.9043 18.4688C58.1582 18.7578 58.3516 19.0996 58.4844 19.4941C58.6172 19.8848 58.6836 20.3086 58.6836 20.7656V20.9004C58.6836 21.3574 58.6172 21.7812 58.4844 22.1719C58.3516 22.5625 58.1582 22.9043 57.9043 23.1973C57.6504 23.4863 57.3418 23.7129 56.9785 23.877C56.6152 24.0371 56.2031 24.1172 55.7422 24.1172C55.2773 24.1172 54.8613 24.0371 54.4941 23.877C54.1309 23.7129 53.8223 23.4863 53.5684 23.1973C53.3145 22.9043 53.1211 22.5625 52.9883 22.1719C52.8555 21.7812 52.7891 21.3574 52.7891 20.9004ZM54.2012 20.7656V20.9004C54.2012 21.1855 54.2305 21.4551 54.2891 21.709C54.3477 21.9629 54.4395 22.1855 54.5645 22.377C54.6895 22.5684 54.8496 22.7188 55.0449 22.8281C55.2402 22.9375 55.4727 22.9922 55.7422 22.9922C56.0039 22.9922 56.2305 22.9375 56.4219 22.8281C56.6172 22.7188 56.7773 22.5684 56.9023 22.377C57.0273 22.1855 57.1191 21.9629 57.1777 21.709C57.2402 21.4551 57.2715 21.1855 57.2715 20.9004V20.7656C57.2715 20.4844 57.2402 20.2188 57.1777 19.9688C57.1191 19.7148 57.0254 19.4902 56.8965 19.2949C56.7715 19.0996 56.6113 18.9473 56.416 18.8379C56.2246 18.7246 55.9961 18.668 55.7305 18.668C55.4648 18.668 55.2344 18.7246 55.0391 18.8379C54.8477 18.9473 54.6895 19.0996 54.5645 19.2949C54.4395 19.4902 54.3477 19.7148 54.2891 19.9688C54.2305 20.2188 54.2012 20.4844 54.2012 20.7656ZM62.7734 17.6602V18.6914H59.1992V17.6602H62.7734ZM60.2305 16.1074H61.6426V22.248C61.6426 22.4434 61.6699 22.5938 61.7246 22.6992C61.7832 22.8008 61.8633 22.8691 61.9648 22.9043C62.0664 22.9395 62.1855 22.957 62.3223 22.957C62.4199 22.957 62.5137 22.9512 62.6035 22.9395C62.6934 22.9277 62.7656 22.916 62.8203 22.9043L62.8262 23.9824C62.709 24.0176 62.5723 24.0488 62.416 24.0762C62.2637 24.1035 62.0879 24.1172 61.8887 24.1172C61.5645 24.1172 61.2773 24.0605 61.0273 23.9473C60.7773 23.8301 60.582 23.6406 60.4414 23.3789C60.3008 23.1172 60.2305 22.7695 60.2305 22.3359V16.1074ZM63.4531 20.9004V20.7656C63.4531 20.3086 63.5195 19.8848 63.6523 19.4941C63.7852 19.0996 63.9766 18.7578 64.2266 18.4688C64.4805 18.1758 64.7891 17.9492 65.1523 17.7891C65.5195 17.625 65.9336 17.543 66.3945 17.543C66.8594 17.543 67.2734 17.625 67.6367 17.7891C68.0039 17.9492 68.3145 18.1758 68.5684 18.4688C68.8223 18.7578 69.0156 19.0996 69.1484 19.4941C69.2812 19.8848 69.3477 20.3086 69.3477 20.7656V20.9004C69.3477 21.3574 69.2812 21.7812 69.1484 22.1719C69.0156 22.5625 68.8223 22.9043 68.5684 23.1973C68.3145 23.4863 68.0059 23.7129 67.6426 23.877C67.2793 24.0371 66.8672 24.1172 66.4062 24.1172C65.9414 24.1172 65.5254 24.0371 65.1582 23.877C64.7949 23.7129 64.4863 23.4863 64.2324 23.1973C63.9785 22.9043 63.7852 22.5625 63.6523 22.1719C63.5195 21.7812 63.4531 21.3574 63.4531 20.9004ZM64.8652 20.7656V20.9004C64.8652 21.1855 64.8945 21.4551 64.9531 21.709C65.0117 21.9629 65.1035 22.1855 65.2285 22.377C65.3535 22.5684 65.5137 22.7188 65.709 22.8281C65.9043 22.9375 66.1367 22.9922 66.4062 22.9922C66.668 22.9922 66.8945 22.9375 67.0859 22.8281C67.2812 22.7188 67.4414 22.5684 67.5664 22.377C67.6914 22.1855 67.7832 21.9629 67.8418 21.709C67.9043 21.4551 67.9355 21.1855 67.9355 20.9004V20.7656C67.9355 20.4844 67.9043 20.2188 67.8418 19.9688C67.7832 19.7148 67.6895 19.4902 67.5605 19.2949C67.4355 19.0996 67.2754 18.9473 67.0801 18.8379C66.8887 18.7246 66.6602 18.668 66.3945 18.668C66.1289 18.668 65.8984 18.7246 65.7031 18.8379C65.5117 18.9473 65.3535 19.0996 65.2285 19.2949C65.1035 19.4902 65.0117 19.7148 64.9531 19.9688C64.8945 20.2188 64.8652 20.4844 64.8652 20.7656Z" fill="black"/>
</g>
<defs>
<filter id="filter0_d_3305_16658" x="0" y="0" width="80" height="40" filterUnits="userSpaceOnUse" color-interpolation-filters="sRGB">
<feFlood flood-opacity="0" result="BackgroundImageFix"/>
<feColorMatrix in="SourceAlpha" type="matrix" values="0 0 0 0 0 0 0 0 0 0 0 0 0 0 0 0 0 0 127 0" result="hardAlpha"/>
<feOffset/>
<feGaussianBlur stdDeviation="2.5"/>
<feComposite in2="hardAlpha" operator="out"/>
<feColorMatrix type="matrix" values="0 0 0 0 0 0 0 0 0 0 0 0 0 0 0 0 0 0 0.16 0"/>
<feBlend mode="normal" in2="BackgroundImageFix" result="effect1_dropShadow_3305_16658"/>
<feBlend mode="normal" in="SourceGraphic" in2="effect1_dropShadow_3305_16658" result="shape"/>
</filter>
</defs>
</svg>
